<?xml version="1.0" encoding="utf-8"?>
<!-- Generator: Adobe Illustrator 21.0.0, SVG Export Plug-In . SVG Version: 6.00 Build 0)  -->
<svg version="1.1" id="Layer_1" xmlns="http://www.w3.org/2000/svg" xmlns:xlink="http://www.w3.org/1999/xlink" x="0px" y="0px"
	 viewBox="0 0 808 423" style="enable-background:new 0 0 808 423;" xml:space="preserve">
<style type="text/css">
	.st0{clip-path:url(#SVGID_2_);fill:#DAE0E6;}
	.st1{clip-path:url(#SVGID_4_);fill:#E16B60;}
	.st2{clip-path:url(#SVGID_6_);fill:#1ABC9C;}
	.st3{opacity:0.5;fill:#34495E;enable-background:new    ;}
	.st4{opacity:0.5;}
	.st5{fill:#34495E;}
	.st6{fill:#1ABC9C;}
	.st7{clip-path:url(#SVGID_8_);fill:#DAE0E6;}
	.st8{clip-path:url(#SVGID_10_);fill:#E16B60;}
	.st9{clip-path:url(#SVGID_12_);fill:#1ABC9C;}
	.st10{clip-path:url(#SVGID_14_);fill:#DAE0E6;}
	.st11{clip-path:url(#SVGID_16_);fill:#E16B60;}
	.st12{clip-path:url(#SVGID_18_);fill:#1ABC9C;}
	.st13{clip-path:url(#SVGID_20_);fill:#DAE0E6;}
	.st14{clip-path:url(#SVGID_22_);fill:#F3AE42;}
	.st15{clip-path:url(#SVGID_24_);fill:#3498DB;}
	.st16{fill:#3498DB;}
	.st17{clip-path:url(#SVGID_26_);fill:#DAE0E6;}
	.st18{clip-path:url(#SVGID_28_);fill:#F3AE42;}
	.st19{clip-path:url(#SVGID_30_);fill:#3498DB;}
	.st20{clip-path:url(#SVGID_32_);fill:#DAE0E6;}
	.st21{clip-path:url(#SVGID_34_);fill:#F3AE42;}
	.st22{clip-path:url(#SVGID_36_);fill:#3498DB;}
	.st23{clip-path:url(#SVGID_38_);fill:#DAE0E6;}
	.st24{clip-path:url(#SVGID_40_);fill:#F3AE42;}
	.st25{clip-path:url(#SVGID_42_);fill:#3498DB;}
	.st26{clip-path:url(#SVGID_44_);fill:#DAE0E6;}
	.st27{clip-path:url(#SVGID_46_);fill:#F1D152;}
	.st28{clip-path:url(#SVGID_48_);fill:#9B59B6;}
	.st29{fill:#9B59B6;}
	.st30{clip-path:url(#SVGID_50_);fill:#DAE0E6;}
	.st31{clip-path:url(#SVGID_52_);fill:#F1D152;}
	.st32{clip-path:url(#SVGID_54_);fill:#9B59B6;}
	.st33{clip-path:url(#SVGID_56_);fill:#DAE0E6;}
	.st34{clip-path:url(#SVGID_58_);fill:#F1D152;}
	.st35{clip-path:url(#SVGID_60_);fill:#9B59B6;}
	.st36{fill:#727271;}
</style>
<g>
	<g id="_x32_006">
		<g id="_x31__2_">
			<g>
				<defs>
					<rect id="SVGID_1_" x="102.3" y="35" width="38.9" height="338"/>
				</defs>
				<clipPath id="SVGID_2_">
					<use xlink:href="#SVGID_1_"  style="overflow:visible;"/>
				</clipPath>
				<rect x="102.3" y="35" class="st0" width="38.9" height="338"/>
			</g>
			<g>
				<defs>
					<rect id="SVGID_3_" x="102.3" y="35" width="38.9" height="338"/>
				</defs>
				<clipPath id="SVGID_4_">
					<use xlink:href="#SVGID_3_"  style="overflow:visible;"/>
				</clipPath>
				<rect x="102.3" y="265.5" class="st1" width="38.9" height="107.5"/>
			</g>
			<g>
				<defs>
					<rect id="SVGID_5_" x="102.3" y="35" width="38.9" height="338"/>
				</defs>
				<clipPath id="SVGID_6_">
					<use xlink:href="#SVGID_5_"  style="overflow:visible;"/>
				</clipPath>
				<rect x="102.3" y="325.6" class="st2" width="38.9" height="47.3"/>
			</g>
		</g>
		<g>
			<path class="st3" d="M117,310.9h0.6v7.1H117v-6.7l-3.2,1.4l-0.3-0.3L117,310.9z"/>
			<path class="st3" d="M127.7,316.5h-6v-0.3l3.5-5.3h0.7l-3.5,5.2h5.3v-2.4h0.6v2.4h1.7v0.4h-1.7v1.5h-0.6
				C127.7,318,127.7,316.5,127.7,316.5z"/>
		</g>
		<g class="st4">
			<path class="st5" d="M113.5,250.8c0,0,1.6-0.2,3.4-0.2c2.5,0,3.4,0.6,3.4,1.8c0,1.3-1.9,1.6-2,1.6c1.3,0.2,2.3,0.6,2.3,1.9
				c0,1.4-1.1,2.1-3.6,2.1c-1.9,0-3.7-0.2-3.7-0.2l0.1-0.4c0,0,1.8,0.2,3.7,0.2c2,0,2.9-0.6,2.9-1.7c0-1.3-1.3-1.6-2.8-1.7h-2.3
				v-0.4h2.3c0.9,0,2.5-0.5,2.5-1.5s-0.7-1.4-2.8-1.4c-1.7,0-3.3,0.2-3.3,0.2L113.5,250.8z"/>
			<path class="st5" d="M123,257.8v-0.3l3.9-2.6c1.4-0.9,2.3-1.5,2.3-2.5c0-1.1-1-1.5-2.9-1.5c-1.3,0-3.1,0.3-3.1,0.3l-0.1-0.4
				c0,0,1.6-0.3,3.2-0.3c2.3,0,3.5,0.5,3.5,1.8c0,1.1-0.9,1.7-2.3,2.6l-3.7,2.5h6.4v0.3L123,257.8L123,257.8z"/>
		</g>
		<g>
			<path class="st6" d="M98.9,399.9v-0.4l4.9-3.3c1.7-1.1,2.9-1.9,2.9-3.1c0-1.4-1.3-1.8-3.6-1.8c-1.6,0-3.9,0.4-3.9,0.4l-0.1-0.5
				c0,0,2-0.4,4-0.4c2.8,0,4.4,0.6,4.4,2.3c0,1.3-1.1,2.1-2.8,3.2l-4.7,3.1h8v0.4L98.9,399.9L98.9,399.9z"/>
			<path class="st6" d="M120.5,395.6c0,3.4-1.9,4.4-5,4.4s-5-0.9-5-4.4c0-3.9,1.9-4.8,5-4.8C118.7,390.8,120.5,391.7,120.5,395.6z
				 M111.3,395.6c0,3.2,1.6,3.9,4.2,3.9s4.1-0.7,4.1-3.9c0-3.5-1.4-4.3-4.2-4.3C112.7,391.3,111.3,392.1,111.3,395.6z"/>
			<path class="st6" d="M132.6,395.6c0,3.4-1.9,4.4-5,4.4c-3.1,0-5-0.9-5-4.4c0-3.9,1.9-4.8,5-4.8
				C130.8,390.8,132.6,391.7,132.6,395.6z M123.4,395.6c0,3.2,1.6,3.9,4.2,3.9s4.2-0.7,4.2-3.9c0-3.5-1.4-4.3-4.2-4.3
				C124.8,391.3,123.4,392.1,123.4,395.6z"/>
			<path class="st6" d="M143.9,391.4c0,0-1.8-0.1-3.6-0.1c-2.8,0-4.5,1.3-4.5,3.7c0,0,2.2-0.6,4.2-0.6c3.1,0,4.7,0.9,4.7,2.7
				c0,1.8-1.7,2.9-4.8,2.9c-3.4,0-4.8-1.8-4.8-4.7c0-3.1,2.1-4.5,5.3-4.5c1.8,0,3.7,0.1,3.7,0.1L143.9,391.4z M135.8,395.5
				c0.1,2.3,1.1,4,4,4c2.6,0,4-0.9,4-2.5c0-1.5-1.5-2.2-3.9-2.2C137.9,394.9,135.8,395.5,135.8,395.5z"/>
		</g>
	</g>
	<g id="_x32_007">
		<g id="_x32__2_">
			<g>
				<defs>
					<rect id="SVGID_7_" x="167.9" y="35" width="38.9" height="338"/>
				</defs>
				<clipPath id="SVGID_8_">
					<use xlink:href="#SVGID_7_"  style="overflow:visible;"/>
				</clipPath>
				<rect x="167.9" y="35" class="st7" width="38.9" height="338"/>
			</g>
			<g>
				<defs>
					<rect id="SVGID_9_" x="167.9" y="35" width="38.9" height="338"/>
				</defs>
				<clipPath id="SVGID_10_">
					<use xlink:href="#SVGID_9_"  style="overflow:visible;"/>
				</clipPath>
				<rect x="167.9" y="231" class="st8" width="38.9" height="141.9"/>
			</g>
			<g>
				<defs>
					<rect id="SVGID_11_" x="167.9" y="35" width="38.9" height="338"/>
				</defs>
				<clipPath id="SVGID_12_">
					<use xlink:href="#SVGID_11_"  style="overflow:visible;"/>
				</clipPath>
				<rect x="167.9" y="305.4" class="st9" width="38.9" height="67.6"/>
			</g>
		</g>
		<g>
			<path class="st3" d="M178.7,297.5v-0.3l3.9-2.6c1.4-0.9,2.3-1.5,2.3-2.5c0-1.1-1-1.5-2.9-1.5c-1.3,0-3.1,0.3-3.1,0.3l-0.1-0.4
				c0,0,1.6-0.3,3.2-0.3c2.3,0,3.5,0.5,3.5,1.8c0,1.1-0.9,1.7-2.3,2.6l-3.8,2.5h6.4v0.3h-7.1V297.5z"/>
			<path class="st3" d="M196,294.1c0,2.8-1.5,3.5-4,3.5c-2.4,0-4-0.7-4-3.5c0-3.1,1.5-3.8,4-3.8C194.6,290.2,196,291,196,294.1z
				 M188.7,294.1c0,2.6,1.3,3.1,3.3,3.1c2.1,0,3.3-0.6,3.3-3.1c0-2.8-1.1-3.5-3.3-3.5S188.7,291.3,188.7,294.1z"/>
		</g>
		<g>
			<path class="st3" d="M184.6,221.6h-6v-0.3l3.5-5.3h0.7l-3.5,5.2h5.3v-2.4h0.6v2.4h1.7v0.4h-1.7v1.5h-0.6V221.6z"/>
			<path class="st3" d="M188.9,223.1v-0.3l3.9-2.6c1.4-0.9,2.3-1.5,2.3-2.5c0-1.1-1-1.5-2.9-1.5c-1.3,0-3.1,0.3-3.1,0.3l-0.1-0.4
				c0,0,1.6-0.3,3.2-0.3c2.3,0,3.5,0.5,3.5,1.8c0,1-0.9,1.7-2.3,2.6l-3.8,2.5h6.4v0.3L188.9,223.1L188.9,223.1z"/>
		</g>
		<g>
			<path class="st6" d="M164.7,399.9v-0.4l4.9-3.3c1.7-1.1,2.9-1.9,2.9-3.1c0-1.4-1.3-1.8-3.6-1.8c-1.6,0-3.9,0.4-3.9,0.4l-0.1-0.5
				c0,0,2-0.4,4-0.4c2.8,0,4.4,0.6,4.4,2.3c0,1.3-1.1,2.1-2.8,3.2l-4.7,3.1h8v0.4L164.7,399.9L164.7,399.9z"/>
			<path class="st6" d="M186.3,395.6c0,3.4-1.9,4.4-5,4.4s-5-0.9-5-4.4c0-3.9,1.9-4.8,5-4.8C184.6,390.8,186.3,391.7,186.3,395.6z
				 M177.2,395.6c0,3.2,1.6,3.9,4.2,3.9c2.6,0,4.1-0.7,4.1-3.9c0-3.5-1.4-4.3-4.2-4.3C178.6,391.3,177.2,392.1,177.2,395.6z"/>
			<path class="st6" d="M198.4,395.6c0,3.4-1.9,4.4-5,4.4s-5-0.9-5-4.4c0-3.9,1.9-4.8,5-4.8C196.7,390.8,198.4,391.7,198.4,395.6z
				 M189.3,395.6c0,3.2,1.6,3.9,4.2,3.9c2.6,0,4.2-0.7,4.2-3.9c0-3.5-1.4-4.3-4.2-4.3C190.7,391.3,189.3,392.1,189.3,395.6z"/>
			<path class="st6" d="M201.3,391h8.7v0.9l-5.8,8.2l-0.8-0.2l5.7-8.1v-0.3h-7.9V391H201.3z"/>
		</g>
	</g>
	<g id="_x32_008">
		<g id="_x33__2_">
			<g>
				<defs>
					<rect id="SVGID_13_" x="233.5" y="35" width="38.9" height="338"/>
				</defs>
				<clipPath id="SVGID_14_">
					<use xlink:href="#SVGID_13_"  style="overflow:visible;"/>
				</clipPath>
				<rect x="233.5" y="35" class="st10" width="38.9" height="338"/>
			</g>
			<g>
				<defs>
					<rect id="SVGID_15_" x="233.5" y="35" width="38.9" height="338"/>
				</defs>
				<clipPath id="SVGID_16_">
					<use xlink:href="#SVGID_15_"  style="overflow:visible;"/>
				</clipPath>
				<rect x="233.5" y="150.6" class="st11" width="38.9" height="222.4"/>
			</g>
			<g>
				<defs>
					<rect id="SVGID_17_" x="233.5" y="35" width="38.9" height="338"/>
				</defs>
				<clipPath id="SVGID_18_">
					<use xlink:href="#SVGID_17_"  style="overflow:visible;"/>
				</clipPath>
				<rect x="233.5" y="231.7" class="st12" width="38.9" height="141.3"/>
			</g>
		</g>
		<g>
			<path class="st3" d="M250.2,222.7h-6v-0.3l3.5-5.3h0.7l-3.5,5.2h5.3V220h0.6v2.4h1.7v0.4h-1.7v1.5h-0.6V222.7z"/>
			<path class="st3" d="M254.5,224.3V224l3.9-2.6c1.4-0.9,2.3-1.5,2.3-2.5c0-1.1-1-1.5-2.9-1.5c-1.3,0-3.1,0.3-3.1,0.3l-0.1-0.4
				c0,0,1.6-0.3,3.2-0.3c2.3,0,3.5,0.5,3.5,1.8c0,1.1-0.9,1.7-2.3,2.6l-3.8,2.5h6.4v0.3L254.5,224.3L254.5,224.3z"/>
		</g>
		<g>
			<path class="st3" d="M251.4,135.7c0,0-1.4-0.1-2.9-0.1c-2.2,0-3.6,1-3.6,3c0,0,1.8-0.5,3.3-0.5c2.5,0,3.8,0.7,3.8,2.1
				c0,1.5-1.3,2.3-3.9,2.3c-2.7,0-3.9-1.4-3.9-3.7c0-2.5,1.7-3.6,4.3-3.6c1.5,0,2.9,0.1,2.9,0.1L251.4,135.7z M244.9,139
				c0.1,1.9,0.9,3.2,3.2,3.2c2.1,0,3.2-0.7,3.2-2c0-1.2-1.2-1.8-3.1-1.8C246.6,138.5,244.9,139,244.9,139z"/>
			<path class="st3" d="M261.1,135.7c0,0-1.4-0.1-2.9-0.1c-2.2,0-3.6,1-3.6,3c0,0,1.8-0.5,3.3-0.5c2.5,0,3.8,0.7,3.8,2.1
				c0,1.5-1.3,2.3-3.9,2.3c-2.7,0-3.9-1.4-3.9-3.7c0-2.5,1.7-3.6,4.3-3.6c1.5,0,2.9,0.1,2.9,0.1L261.1,135.7z M254.6,139
				c0.1,1.9,0.9,3.2,3.2,3.2c2.1,0,3.2-0.7,3.2-2c0-1.2-1.2-1.8-3.1-1.8C256.3,138.5,254.6,139,254.6,139z"/>
		</g>
		<g>
			<path class="st6" d="M229.9,399.9v-0.4l4.9-3.3c1.7-1.1,2.8-1.9,2.8-3.1c0-1.4-1.3-1.8-3.6-1.8c-1.6,0-3.9,0.4-3.9,0.4l-0.1-0.5
				c0,0,2-0.4,4-0.4c2.8,0,4.4,0.6,4.4,2.3c0,1.3-1.1,2.1-2.8,3.2l-4.7,3.1h8v0.4L229.9,399.9L229.9,399.9z"/>
			<path class="st6" d="M251.5,395.6c0,3.4-1.9,4.4-5,4.4s-5-0.9-5-4.4c0-3.9,1.9-4.8,5-4.8C249.7,390.8,251.5,391.7,251.5,395.6z
				 M242.3,395.6c0,3.2,1.6,3.9,4.2,3.9c2.6,0,4.2-0.7,4.2-3.9c0-3.5-1.4-4.3-4.2-4.3C243.7,391.3,242.3,392.1,242.3,395.6z"/>
			<path class="st6" d="M263.6,395.6c0,3.4-1.9,4.4-5,4.4s-5-0.9-5-4.4c0-3.9,1.9-4.8,5-4.8C261.8,390.8,263.6,391.7,263.6,395.6z
				 M254.4,395.6c0,3.2,1.6,3.9,4.2,3.9s4.1-0.7,4.1-3.9c0-3.5-1.4-4.3-4.2-4.3C255.8,391.3,254.4,392.1,254.4,395.6z"/>
			<path class="st6" d="M275.8,393c0,1.2-1,1.8-2.9,2.1c1.8,0.3,3.2,0.9,3.2,2.3c0,2-2.4,2.5-5.3,2.5c-2.8,0-5.3-0.6-5.3-2.4
				c0-1.5,1.2-2,2.9-2.4c-1.7-0.4-2.7-0.9-2.7-2.1c0-1.5,1.9-2.2,5-2.2C273.8,390.8,275.8,391.5,275.8,393z M275.2,397.5
				c0-1.4-1.6-1.8-3.4-2.1h-2.5c-1.9,0.3-3.1,0.8-3.1,2.2c0,1.5,2,1.9,4.4,1.9C273.2,399.5,275.2,399.1,275.2,397.5z M266.5,393
				c0,1.1,1,1.6,2.8,1.9h2.5c2-0.3,3.1-0.8,3.1-1.9c0-1.3-1.6-1.8-4.3-1.8C268.1,391.3,266.5,391.7,266.5,393z"/>
		</g>
	</g>
	<g id="_x32_009">
		<g id="_x34__2_">
			<g>
				<defs>
					<rect id="SVGID_19_" x="299.1" y="35" width="38.9" height="338"/>
				</defs>
				<clipPath id="SVGID_20_">
					<use xlink:href="#SVGID_19_"  style="overflow:visible;"/>
				</clipPath>
				<rect x="299.1" y="35" class="st13" width="38.9" height="338"/>
			</g>
			<g>
				<defs>
					<rect id="SVGID_21_" x="299.1" y="35" width="38.9" height="338"/>
				</defs>
				<clipPath id="SVGID_22_">
					<use xlink:href="#SVGID_21_"  style="overflow:visible;"/>
				</clipPath>
				<rect x="299.1" y="183.7" class="st14" width="38.9" height="189.3"/>
			</g>
			<g>
				<defs>
					<rect id="SVGID_23_" x="299.1" y="35" width="38.9" height="338"/>
				</defs>
				<clipPath id="SVGID_24_">
					<use xlink:href="#SVGID_23_"  style="overflow:visible;"/>
				</clipPath>
				<rect x="299.1" y="264.8" class="st15" width="38.9" height="108.1"/>
			</g>
		</g>
		<g>
			<path class="st3" d="M310.3,249.9c0,0,1.6-0.2,3.4-0.2c2.5,0,3.4,0.6,3.4,1.8c0,1.3-1.9,1.6-2,1.6c1.3,0.2,2.3,0.6,2.3,1.9
				c0,1.4-1.1,2.1-3.6,2.1c-1.9,0-3.8-0.2-3.8-0.2l0.1-0.4c0,0,1.8,0.2,3.7,0.2c2,0,2.9-0.6,2.9-1.7c0-1.3-1.3-1.6-2.8-1.7h-2.3V253
				h2.3c0.9,0,2.5-0.5,2.5-1.5s-0.7-1.4-2.8-1.4c-1.7,0-3.3,0.2-3.3,0.2L310.3,249.9z"/>
			<path class="st3" d="M319.9,256.9v-0.3l3.9-2.6c1.4-0.9,2.3-1.5,2.3-2.5c0-1.1-1-1.5-2.9-1.5c-1.3,0-3.1,0.3-3.1,0.3L320,250
				c0,0,1.6-0.3,3.2-0.3c2.3,0,3.5,0.5,3.5,1.8c0,1.1-0.9,1.7-2.3,2.6l-3.8,2.5h6.4v0.3H319.9z"/>
		</g>
		<g>
			<path class="st3" d="M316.8,168.7v0.4H311l-0.3,2.8c0,0,1.5-0.6,3.1-0.6c2.2,0,3.6,0.5,3.6,2.1c0,1.7-1.5,2.5-3.8,2.5
				c-1.7,0-3.6-0.3-3.6-0.3l0.1-0.4c0,0,1.9,0.3,3.5,0.3c1.9,0,3.1-0.7,3.1-2.1c0-1.3-1.3-1.7-3-1.7c-1.6,0-3.1,0.6-3.1,0.6H310
				l0.3-3.6H316.8z"/>
			<path class="st3" d="M326.6,169.1c0,0-1.4-0.1-2.9-0.1c-2.2,0-3.6,1-3.6,3c0,0,1.8-0.5,3.3-0.5c2.5,0,3.8,0.7,3.8,2.1
				c0,1.5-1.3,2.3-3.9,2.3c-2.7,0-3.9-1.4-3.9-3.7c0-2.5,1.7-3.6,4.3-3.6c1.5,0,2.9,0.1,2.9,0.1L326.6,169.1z M320.1,172.3
				c0.1,1.9,0.9,3.2,3.2,3.2c2.1,0,3.2-0.7,3.2-2c0-1.2-1.2-1.8-3.1-1.8C321.8,171.8,320.1,172.3,320.1,172.3z"/>
		</g>
		<g>
			<path class="st16" d="M295.8,399.9v-0.4l4.9-3.3c1.7-1.1,2.8-1.9,2.8-3.1c0-1.4-1.3-1.8-3.6-1.8c-1.6,0-3.9,0.4-3.9,0.4l-0.1-0.5
				c0,0,2-0.4,4-0.4c2.8,0,4.4,0.6,4.4,2.3c0,1.3-1.1,2.1-2.8,3.2l-4.7,3.1h8v0.4L295.8,399.9L295.8,399.9z"/>
			<path class="st16" d="M317.4,395.6c0,3.4-1.9,4.4-5,4.4s-5-0.9-5-4.4c0-3.9,1.9-4.8,5-4.8C315.6,390.8,317.4,391.7,317.4,395.6z
				 M308.2,395.6c0,3.2,1.6,3.9,4.2,3.9s4.2-0.7,4.2-3.9c0-3.5-1.4-4.3-4.2-4.3C309.6,391.3,308.2,392.1,308.2,395.6z"/>
			<path class="st16" d="M329.5,395.6c0,3.4-1.9,4.4-5,4.4s-5-0.9-5-4.4c0-3.9,1.9-4.8,5-4.8C327.7,390.8,329.5,391.7,329.5,395.6z
				 M320.3,395.6c0,3.2,1.6,3.9,4.2,3.9s4.1-0.7,4.1-3.9c0-3.5-1.4-4.3-4.2-4.3C321.7,391.3,320.3,392.1,320.3,395.6z"/>
			<path class="st16" d="M332.3,399.4c0,0,1.8,0.1,3.6,0.1c3,0,4.6-1.1,4.6-3.7c0,0-2.5,0.6-4.4,0.6c-2.9,0-4.5-0.8-4.5-2.6
				c0-1.8,1.9-3,4.8-3c3.5,0,5,1.8,5,4.7c0,3.4-2,4.5-5.5,4.5c-1.8,0-3.7-0.1-3.7-0.1L332.3,399.4z M340.6,395.3
				c-0.1-2.4-1.2-4.1-4.1-4.1c-2.4,0-3.9,1-3.9,2.5s1.3,2.2,3.7,2.2C337.9,396,340.6,395.3,340.6,395.3z"/>
		</g>
	</g>
	<g id="_x32_010">
		<g id="_x35_">
			<g>
				<defs>
					<rect id="SVGID_25_" x="364.7" y="35" width="38.9" height="338"/>
				</defs>
				<clipPath id="SVGID_26_">
					<use xlink:href="#SVGID_25_"  style="overflow:visible;"/>
				</clipPath>
				<rect x="364.7" y="35" class="st17" width="38.9" height="338"/>
			</g>
			<g>
				<defs>
					<rect id="SVGID_27_" x="364.7" y="35" width="38.9" height="338"/>
				</defs>
				<clipPath id="SVGID_28_">
					<use xlink:href="#SVGID_27_"  style="overflow:visible;"/>
				</clipPath>
				<rect x="364.7" y="143.1" class="st18" width="38.9" height="229.8"/>
			</g>
			<g>
				<defs>
					<rect id="SVGID_29_" x="364.7" y="35" width="38.9" height="338"/>
				</defs>
				<clipPath id="SVGID_30_">
					<use xlink:href="#SVGID_29_"  style="overflow:visible;"/>
				</clipPath>
				<rect x="364.7" y="217.5" class="st19" width="38.9" height="155.5"/>
			</g>
		</g>
		<g>
			<path class="st3" d="M381.3,208.1h-6v-0.3l3.5-5.3h0.7l-3.5,5.2h5.3v-2.4h0.6v2.4h1.7v0.4h-1.7v1.5h-0.6V208.1z"/>
			<path class="st3" d="M392.5,202.9c0,0-1.4-0.1-2.9-0.1c-2.3,0-3.6,1-3.6,3c0,0,1.8-0.5,3.3-0.5c2.5,0,3.8,0.7,3.8,2.1
				c0,1.5-1.3,2.3-3.9,2.3c-2.7,0-3.9-1.4-3.9-3.7c0-2.5,1.7-3.6,4.3-3.6c1.5,0,2.9,0.1,2.9,0.1L392.5,202.9z M386,206.1
				c0.1,1.9,0.9,3.2,3.2,3.2c2.1,0,3.2-0.7,3.2-2c0-1.2-1.2-1.8-3.1-1.8C387.7,205.6,386,206.1,386,206.1z"/>
		</g>
		<g>
			<path class="st3" d="M382.4,128.5c0,0-1.4-0.1-2.9-0.1c-2.2,0-3.6,1-3.6,3c0,0,1.8-0.5,3.3-0.5c2.5,0,3.8,0.7,3.8,2.1
				c0,1.5-1.3,2.3-3.9,2.3c-2.7,0-3.9-1.4-3.9-3.7c0-2.5,1.7-3.6,4.3-3.6c1.5,0,2.9,0.1,2.9,0.1L382.4,128.5z M375.9,131.8
				c0.1,1.9,0.9,3.2,3.2,3.2c2.1,0,3.2-0.7,3.2-2c0-1.2-1.2-1.8-3.1-1.8C377.7,131.2,375.9,131.8,375.9,131.8z"/>
			<path class="st3" d="M392.9,129.8c0,1-0.8,1.4-2.4,1.7c1.4,0.3,2.5,0.7,2.5,1.8c0,1.6-1.9,2-4.3,2c-2.2,0-4.2-0.5-4.2-1.9
				c0-1.2,1-1.6,2.3-1.9c-1.3-0.3-2.1-0.7-2.1-1.7c0-1.2,1.5-1.8,4-1.8C391.2,128,392.9,128.6,392.9,129.8z M392.4,133.3
				c0-1.2-1.2-1.4-2.7-1.6h-2c-1.5,0.2-2.4,0.6-2.4,1.7c0,1.2,1.6,1.6,3.5,1.6C390.8,135,392.4,134.7,392.4,133.3z M385.4,129.8
				c0,0.9,0.8,1.3,2.3,1.5h2c1.6-0.2,2.5-0.6,2.5-1.5c0-1.1-1.3-1.4-3.4-1.4C386.7,128.4,385.4,128.7,385.4,129.8z"/>
		</g>
		<g>
			<path class="st16" d="M361.3,399.9v-0.4l4.9-3.3c1.7-1.1,2.9-1.9,2.9-3.1c0-1.4-1.3-1.8-3.6-1.8c-1.6,0-3.9,0.4-3.9,0.4l-0.1-0.5
				c0,0,2-0.4,4-0.4c2.8,0,4.4,0.6,4.4,2.3c0,1.3-1.1,2.1-2.8,3.2l-4.7,3.1h8v0.4L361.3,399.9L361.3,399.9z"/>
			<path class="st16" d="M382.9,395.6c0,3.4-1.9,4.4-5,4.4s-5-0.9-5-4.4c0-3.9,1.9-4.8,5-4.8C381.1,390.8,382.9,391.7,382.9,395.6z
				 M373.7,395.6c0,3.2,1.6,3.9,4.2,3.9s4.2-0.7,4.2-3.9c0-3.5-1.4-4.3-4.2-4.3C375.1,391.3,373.7,392.1,373.7,395.6z"/>
			<path class="st16" d="M391.1,391h0.8v8.9h-0.8v-8.4l-4,1.7l-0.4-0.4L391.1,391z"/>
			<path class="st16" d="M407.1,395.6c0,3.4-1.9,4.4-5,4.4s-5-0.9-5-4.4c0-3.9,1.9-4.8,5-4.8C405.3,390.8,407.1,391.7,407.1,395.6z
				 M397.9,395.6c0,3.2,1.6,3.9,4.2,3.9s4.2-0.7,4.2-3.9c0-3.5-1.4-4.3-4.2-4.3C399.3,391.3,397.9,392.1,397.9,395.6z"/>
		</g>
	</g>
	<g id="_x32_011">
		<g id="_x36_">
			<g>
				<defs>
					<rect id="SVGID_31_" x="430.3" y="35" width="38.9" height="338"/>
				</defs>
				<clipPath id="SVGID_32_">
					<use xlink:href="#SVGID_31_"  style="overflow:visible;"/>
				</clipPath>
				<rect x="430.3" y="35" class="st20" width="38.9" height="338"/>
			</g>
			<g>
				<defs>
					<rect id="SVGID_33_" x="430.3" y="35" width="38.9" height="338"/>
				</defs>
				<clipPath id="SVGID_34_">
					<use xlink:href="#SVGID_33_"  style="overflow:visible;"/>
				</clipPath>
				<rect x="430.3" y="97.2" class="st21" width="38.9" height="275.8"/>
			</g>
			<g>
				<defs>
					<rect id="SVGID_35_" x="430.3" y="35" width="38.9" height="338"/>
				</defs>
				<clipPath id="SVGID_36_">
					<use xlink:href="#SVGID_35_"  style="overflow:visible;"/>
				</clipPath>
				<rect x="430.3" y="190.5" class="st22" width="38.9" height="182.5"/>
			</g>
		</g>
		<g>
			<path class="st3" d="M447.9,173.9v0.4h-5.8l-0.3,2.8c0,0,1.5-0.6,3.1-0.6c2.2,0,3.6,0.5,3.6,2.1c0,1.7-1.5,2.5-3.8,2.5
				c-1.7,0-3.6-0.3-3.6-0.3l0.1-0.4c0,0,1.9,0.3,3.5,0.3c1.9,0,3.1-0.7,3.1-2.1c0-1.3-1.3-1.7-3-1.7c-1.6,0-3.1,0.6-3.1,0.6h-0.6
				l0.3-3.6H447.9z"/>
			<path class="st3" d="M456.2,179.5h-6v-0.3l3.6-5.3h0.7l-3.5,5.2h5.3v-2.4h0.6v2.4h1.7v0.4h-1.7v1.5h-0.6v-1.5H456.2z"/>
		</g>
		<g>
			<path class="st3" d="M449.3,82.9c0,1-0.8,1.4-2.4,1.7c1.4,0.3,2.5,0.7,2.5,1.8c0,1.6-1.9,2-4.3,2c-2.2,0-4.2-0.5-4.2-1.9
				c0-1.2,1-1.6,2.3-1.9c-1.3-0.3-2.2-0.7-2.2-1.7c0-1.2,1.5-1.8,4-1.8C447.7,81.2,449.3,81.7,449.3,82.9z M448.8,86.5
				c0-1.2-1.2-1.4-2.7-1.6h-2c-1.5,0.2-2.4,0.6-2.4,1.7c0,1.2,1.6,1.6,3.5,1.6C447.3,88.1,448.8,87.8,448.8,86.5z M441.8,82.9
				c0,0.9,0.8,1.3,2.3,1.5h2c1.6-0.2,2.5-0.6,2.5-1.5c0-1.1-1.3-1.4-3.4-1.4C443.1,81.5,441.8,81.9,441.8,82.9z"/>
			<path class="st3" d="M451.3,88.4v-0.3l3.9-2.6c1.4-0.9,2.3-1.5,2.3-2.5c0-1.1-1-1.5-2.9-1.5c-1.3,0-3.1,0.3-3.1,0.3l-0.1-0.4
				c0,0,1.6-0.3,3.2-0.3c2.3,0,3.5,0.5,3.5,1.8c0,1.1-0.9,1.7-2.3,2.6l-3.7,2.5h6.4v0.3L451.3,88.4L451.3,88.4z"/>
		</g>
		<g>
			<path class="st16" d="M428.4,399.9v-0.4l4.9-3.3c1.7-1.1,2.9-1.9,2.9-3.1c0-1.4-1.3-1.8-3.6-1.8c-1.6,0-3.9,0.4-3.9,0.4l-0.1-0.5
				c0,0,2-0.4,4-0.4c2.8,0,4.4,0.6,4.4,2.3c0,1.3-1.1,2.1-2.8,3.2l-4.7,3.1h8v0.4L428.4,399.9L428.4,399.9z"/>
			<path class="st16" d="M450,395.6c0,3.4-1.9,4.4-5,4.4s-5-0.9-5-4.4c0-3.9,1.9-4.8,5-4.8C448.2,390.8,450,391.7,450,395.6z
				 M440.8,395.6c0,3.2,1.6,3.9,4.2,3.9s4.2-0.7,4.2-3.9c0-3.5-1.4-4.3-4.2-4.3C442.2,391.3,440.8,392.1,440.8,395.6z"/>
			<path class="st16" d="M458.3,391h0.8v8.9h-0.8v-8.4l-4,1.7l-0.4-0.4L458.3,391z"/>
			<path class="st16" d="M470.4,391h0.8v8.9h-0.8v-8.4l-4.1,1.7l-0.4-0.4L470.4,391z"/>
		</g>
	</g>
	<g id="_x32_012">
		<g id="_x37_">
			<g>
				<defs>
					<rect id="SVGID_37_" x="495.9" y="35" width="38.9" height="338"/>
				</defs>
				<clipPath id="SVGID_38_">
					<use xlink:href="#SVGID_37_"  style="overflow:visible;"/>
				</clipPath>
				<rect x="495.9" y="35" class="st23" width="38.9" height="338"/>
			</g>
			<g>
				<defs>
					<rect id="SVGID_39_" x="495.9" y="35" width="38.9" height="338"/>
				</defs>
				<clipPath id="SVGID_40_">
					<use xlink:href="#SVGID_39_"  style="overflow:visible;"/>
				</clipPath>
				<rect x="495.9" y="176.9" class="st24" width="38.9" height="196"/>
			</g>
			<g>
				<defs>
					<rect id="SVGID_41_" x="495.9" y="35" width="38.9" height="338"/>
				</defs>
				<clipPath id="SVGID_42_">
					<use xlink:href="#SVGID_41_"  style="overflow:visible;"/>
				</clipPath>
				<rect x="495.9" y="251.3" class="st25" width="38.9" height="121.7"/>
			</g>
		</g>
		<g>
			<path class="st3" d="M506.9,236.4c0,0,1.6-0.2,3.4-0.2c2.5,0,3.4,0.6,3.4,1.8c0,1.3-1.9,1.6-2,1.6c1.3,0.2,2.3,0.6,2.3,1.8
				c0,1.4-1.2,2.1-3.6,2.1c-1.9,0-3.8-0.2-3.8-0.2l0.1-0.4c0,0,1.8,0.2,3.7,0.2c2,0,2.9-0.6,2.9-1.7c0-1.3-1.3-1.6-2.8-1.7h-2.3
				v-0.4h2.3c0.9,0,2.5-0.5,2.5-1.5s-0.7-1.4-2.7-1.4c-1.7,0-3.3,0.2-3.3,0.2L506.9,236.4z"/>
			<path class="st3" d="M523.4,236.6c0,0-1.4-0.1-2.9-0.1c-2.2,0-3.6,1-3.6,3c0,0,1.8-0.5,3.3-0.5c2.5,0,3.8,0.7,3.8,2.1
				c0,1.5-1.3,2.3-3.9,2.3c-2.7,0-3.9-1.4-3.9-3.7c0-2.5,1.7-3.6,4.3-3.6c1.5,0,2.9,0.1,2.9,0.1L523.4,236.6z M517,239.9
				c0.1,1.9,0.9,3.2,3.2,3.2c2.1,0,3.2-0.7,3.2-2c0-1.2-1.2-1.8-3.1-1.8C518.7,239.4,517,239.9,517,239.9z"/>
		</g>
		<g>
			<path class="st3" d="M513.5,161.9v0.4h-5.8l-0.3,2.8c0,0,1.5-0.6,3.1-0.6c2.2,0,3.6,0.5,3.6,2.1c0,1.7-1.5,2.5-3.8,2.5
				c-1.7,0-3.6-0.3-3.6-0.3l0.1-0.4c0,0,1.9,0.3,3.5,0.3c1.9,0,3.1-0.7,3.1-2.1c0-1.3-1.3-1.7-3-1.7c-1.6,0-3.1,0.6-3.1,0.6h-0.6
				l0.3-3.6H513.5z"/>
			<path class="st3" d="M524,163.6c0,1-0.8,1.4-2.4,1.7c1.4,0.3,2.5,0.7,2.5,1.8c0,1.6-1.9,2-4.3,2c-2.2,0-4.2-0.5-4.2-1.9
				c0-1.2,1-1.6,2.3-1.9c-1.3-0.3-2.1-0.7-2.1-1.7c0-1.2,1.5-1.8,4-1.8C522.3,161.8,524,162.3,524,163.6z M523.5,167.1
				c0-1.2-1.2-1.4-2.7-1.6h-2c-1.5,0.2-2.4,0.6-2.4,1.7c0,1.2,1.6,1.6,3.5,1.6C521.9,168.8,523.5,168.4,523.5,167.1z M516.5,163.6
				c0,0.9,0.8,1.3,2.3,1.5h2c1.6-0.2,2.5-0.7,2.5-1.5c0-1.1-1.3-1.4-3.4-1.4C517.8,162.2,516.5,162.5,516.5,163.6z"/>
		</g>
		<g>
			<path class="st16" d="M492.7,399.9v-0.4l4.9-3.3c1.7-1.1,2.9-1.9,2.9-3.1c0-1.4-1.3-1.8-3.6-1.8c-1.6,0-3.9,0.4-3.9,0.4l-0.1-0.5
				c0,0,2-0.4,4-0.4c2.8,0,4.4,0.6,4.4,2.3c0,1.3-1.1,2.1-2.8,3.2l-4.7,3.1h8v0.4L492.7,399.9L492.7,399.9z"/>
			<path class="st16" d="M514.3,395.6c0,3.4-1.9,4.4-5,4.4c-3.1,0-5-0.9-5-4.4c0-3.9,1.9-4.8,5-4.8
				C512.5,390.8,514.3,391.7,514.3,395.6z M505.1,395.6c0,3.2,1.6,3.9,4.2,3.9s4.1-0.7,4.1-3.9c0-3.5-1.4-4.3-4.2-4.3
				C506.5,391.3,505.1,392.1,505.1,395.6z"/>
			<path class="st16" d="M522.6,391h0.8v8.9h-0.8v-8.4l-4.1,1.7l-0.4-0.4L522.6,391z"/>
			<path class="st16" d="M529,399.9v-0.4l4.9-3.3c1.7-1.1,2.9-1.9,2.9-3.1c0-1.4-1.3-1.8-3.6-1.8c-1.6,0-3.9,0.4-3.9,0.4l-0.1-0.5
				c0,0,2-0.4,4-0.4c2.8,0,4.4,0.6,4.4,2.3c0,1.3-1.1,2.1-2.8,3.2l-4.7,3.1h8v0.4L529,399.9L529,399.9z"/>
		</g>
	</g>
	<g id="_x32_013">
		<g id="_x38_">
			<g>
				<defs>
					<rect id="SVGID_43_" x="561.5" y="35" width="38.9" height="338"/>
				</defs>
				<clipPath id="SVGID_44_">
					<use xlink:href="#SVGID_43_"  style="overflow:visible;"/>
				</clipPath>
				<rect x="561.5" y="35" class="st26" width="38.9" height="338"/>
			</g>
			<g>
				<defs>
					<rect id="SVGID_45_" x="561.5" y="35" width="38.9" height="338"/>
				</defs>
				<clipPath id="SVGID_46_">
					<use xlink:href="#SVGID_45_"  style="overflow:visible;"/>
				</clipPath>
				<rect x="561.5" y="223.6" class="st27" width="38.9" height="149.4"/>
			</g>
			<g>
				<defs>
					<rect id="SVGID_47_" x="561.5" y="35" width="38.9" height="338"/>
				</defs>
				<clipPath id="SVGID_48_">
					<use xlink:href="#SVGID_47_"  style="overflow:visible;"/>
				</clipPath>
				<rect x="561.5" y="278.3" class="st28" width="38.9" height="94.6"/>
			</g>
		</g>
		<g>
			<path class="st3" d="M572.2,270.7v-0.3l3.9-2.6c1.4-0.9,2.3-1.5,2.3-2.5c0-1.1-1-1.5-2.9-1.5c-1.3,0-3.1,0.3-3.1,0.3l-0.1-0.4
				c0,0,1.6-0.3,3.2-0.3c2.3,0,3.5,0.5,3.5,1.8c0,1-0.9,1.7-2.3,2.6l-3.8,2.5h6.4v0.3h-7.1V270.7z"/>
			<path class="st3" d="M589.6,265.2c0,1-0.8,1.4-2.4,1.7c1.4,0.3,2.5,0.7,2.5,1.8c0,1.6-1.9,2-4.3,2c-2.2,0-4.2-0.5-4.2-1.9
				c0-1.2,1-1.6,2.3-1.9c-1.3-0.3-2.1-0.7-2.1-1.7c0-1.2,1.5-1.8,4-1.8C587.9,263.4,589.6,264,589.6,265.2z M589.1,268.8
				c0-1.2-1.2-1.4-2.7-1.6h-2c-1.5,0.2-2.4,0.7-2.4,1.7c0,1.2,1.6,1.6,3.5,1.6C587.5,270.4,589.1,270.1,589.1,268.8z M582.1,265.2
				c0,0.9,0.8,1.3,2.3,1.5h2c1.6-0.2,2.5-0.6,2.5-1.5c0-1.1-1.3-1.4-3.4-1.4C583.4,263.8,582.1,264.1,582.1,265.2z"/>
		</g>
		<g>
			<path class="st3" d="M578,214.4h-6v-0.3l3.5-5.3h0.7l-3.5,5.2h5.3v-2.4h0.6v2.4h1.7v0.4h-1.7v1.5H578V214.4z"/>
			<path class="st3" d="M587.7,214.4h-6v-0.3l3.5-5.3h0.7l-3.5,5.2h5.3v-2.4h0.6v2.4h1.7v0.4h-1.7v1.5h-0.6V214.4z"/>
		</g>
		<g>
			<path class="st29" d="M558.3,399.9v-0.4l4.9-3.3c1.7-1.1,2.9-1.9,2.9-3.1c0-1.4-1.3-1.8-3.6-1.8c-1.6,0-3.9,0.4-3.9,0.4l-0.1-0.5
				c0,0,2-0.4,4-0.4c2.8,0,4.4,0.6,4.4,2.3c0,1.3-1.1,2.1-2.8,3.2l-4.7,3.1h8v0.4L558.3,399.9L558.3,399.9z"/>
			<path class="st29" d="M579.9,395.6c0,3.4-1.9,4.4-5,4.4s-5-0.9-5-4.4c0-3.9,1.9-4.8,5-4.8C578.1,390.8,579.9,391.7,579.9,395.6z
				 M570.7,395.6c0,3.2,1.6,3.9,4.2,3.9c2.6,0,4.1-0.7,4.1-3.9c0-3.5-1.4-4.3-4.2-4.3C572.1,391.3,570.7,392.1,570.7,395.6z"/>
			<path class="st29" d="M588.2,391h0.8v8.9h-0.8v-8.4l-4,1.7l-0.4-0.4L588.2,391z"/>
			<path class="st29" d="M594.8,391.1c0,0,2-0.3,4.2-0.3c3.1,0,4.3,0.7,4.3,2.2c0,1.7-2.4,2.1-2.4,2.1c1.6,0.3,2.9,0.7,2.9,2.3
				c0,1.7-1.4,2.6-4.5,2.6c-2.3,0-4.7-0.3-4.7-0.3l0.1-0.5c0,0,2.3,0.3,4.6,0.3c2.6,0,3.7-0.7,3.7-2.1c0-1.6-1.6-2-3.5-2.1h-2.9
				v-0.5h2.9c1.2,0,3.1-0.6,3.1-1.9s-0.9-1.8-3.4-1.8c-2.1,0-4.1,0.3-4.1,0.3L594.8,391.1z"/>
		</g>
	</g>
	<g id="_x32_014">
		<g id="_x39_">
			<g>
				<defs>
					<rect id="SVGID_49_" x="627.1" y="35" width="38.9" height="338"/>
				</defs>
				<clipPath id="SVGID_50_">
					<use xlink:href="#SVGID_49_"  style="overflow:visible;"/>
				</clipPath>
				<rect x="627.1" y="35" class="st30" width="38.9" height="338"/>
			</g>
			<g>
				<defs>
					<rect id="SVGID_51_" x="627.1" y="35" width="38.9" height="338"/>
				</defs>
				<clipPath id="SVGID_52_">
					<use xlink:href="#SVGID_51_"  style="overflow:visible;"/>
				</clipPath>
				<rect x="627.1" y="210.7" class="st31" width="38.9" height="162.2"/>
			</g>
			<g>
				<defs>
					<rect id="SVGID_53_" x="627.1" y="35" width="38.9" height="338"/>
				</defs>
				<clipPath id="SVGID_54_">
					<use xlink:href="#SVGID_53_"  style="overflow:visible;"/>
				</clipPath>
				<rect x="627.1" y="291.9" class="st32" width="38.9" height="81.1"/>
			</g>
		</g>
		<g>
			<path class="st3" d="M637.9,284v-0.3l3.9-2.6c1.4-0.9,2.3-1.5,2.3-2.5c0-1.1-1-1.5-2.9-1.5c-1.3,0-3.1,0.3-3.1,0.3L638,277
				c0,0,1.6-0.3,3.2-0.3c2.3,0,3.5,0.5,3.5,1.8c0,1-0.9,1.7-2.3,2.6l-3.8,2.5h6.4v0.3h-7.1V284z"/>
			<path class="st3" d="M653,282.4h-6v-0.3l3.6-5.3h0.7l-3.5,5.2h5.3v-2.4h0.6v2.4h1.7v0.4h-1.7v1.5H653V282.4z"/>
		</g>
		<g>
			<path class="st3" d="M643.6,201.3h-6V201l3.5-5.3h0.7l-3.5,5.2h5.3v-2.4h0.6v2.4h1.7v0.4h-1.7v1.5h-0.6V201.3z"/>
			<path class="st3" d="M655.5,197.4c0,1-0.8,1.4-2.4,1.7c1.4,0.3,2.5,0.7,2.5,1.8c0,1.6-1.9,2-4.3,2c-2.2,0-4.2-0.5-4.2-1.9
				c0-1.2,1-1.6,2.3-1.9c-1.3-0.3-2.1-0.7-2.1-1.7c0-1.2,1.5-1.8,4-1.8S655.5,196.1,655.5,197.4z M655,200.9c0-1.2-1.2-1.4-2.7-1.6
				h-2c-1.5,0.2-2.4,0.6-2.4,1.7c0,1.2,1.6,1.6,3.5,1.6C653.4,202.6,655,202.2,655,200.9z M648,197.4c0,0.9,0.8,1.3,2.3,1.5h2
				c1.6-0.2,2.5-0.6,2.5-1.5c0-1.1-1.3-1.4-3.4-1.4C649.3,196,648,196.3,648,197.4z"/>
		</g>
		<g>
			<path class="st29" d="M623.6,399.9v-0.4l4.9-3.3c1.7-1.1,2.9-1.9,2.9-3.1c0-1.4-1.3-1.8-3.6-1.8c-1.6,0-3.9,0.4-3.9,0.4l-0.1-0.5
				c0,0,2-0.4,4-0.4c2.8,0,4.4,0.6,4.4,2.3c0,1.3-1.1,2.1-2.8,3.2l-4.7,3.1h8v0.4L623.6,399.9L623.6,399.9z"/>
			<path class="st29" d="M645.2,395.6c0,3.4-1.9,4.4-5,4.4s-5-0.9-5-4.4c0-3.9,1.9-4.8,5-4.8C643.4,390.8,645.2,391.7,645.2,395.6z
				 M636,395.6c0,3.2,1.6,3.9,4.2,3.9c2.6,0,4.1-0.7,4.1-3.9c0-3.5-1.4-4.3-4.2-4.3C637.4,391.3,636,392.1,636,395.6z"/>
			<path class="st29" d="M653.4,391h0.8v8.9h-0.8v-8.4l-4,1.7l-0.4-0.4L653.4,391z"/>
			<path class="st29" d="M666.7,398h-7.5v-0.4l4.4-6.6h0.8l-4.3,6.5h6.6v-3h0.8v3h2.1v0.5h-2.1v1.9h-0.8V398z"/>
		</g>
	</g>
	<g id="_x32_015">
		<g id="_x31_0">
			<g>
				<defs>
					<rect id="SVGID_55_" x="692.7" y="35" width="38.9" height="338"/>
				</defs>
				<clipPath id="SVGID_56_">
					<use xlink:href="#SVGID_55_"  style="overflow:visible;"/>
				</clipPath>
				<rect x="692.7" y="35" class="st33" width="38.9" height="338"/>
			</g>
			<g>
				<defs>
					<rect id="SVGID_57_" x="692.7" y="35" width="38.9" height="338"/>
				</defs>
				<clipPath id="SVGID_58_">
					<use xlink:href="#SVGID_57_"  style="overflow:visible;"/>
				</clipPath>
				<rect x="692.7" y="163.4" class="st34" width="38.9" height="209.5"/>
			</g>
			<g>
				<defs>
					<rect id="SVGID_59_" x="692.7" y="35" width="38.9" height="338"/>
				</defs>
				<clipPath id="SVGID_60_">
					<use xlink:href="#SVGID_59_"  style="overflow:visible;"/>
				</clipPath>
				<rect x="692.7" y="224.9" class="st35" width="38.9" height="148"/>
			</g>
		</g>
		<g>
			<path class="st3" d="M709.2,215.5h-6v-0.3l3.5-5.3h0.7l-3.5,5.2h5.3v-2.4h0.6v2.4h1.7v0.4h-1.7v1.5h-0.6V215.5z"/>
			<path class="st3" d="M718.9,215.5h-6v-0.3l3.5-5.3h0.7l-3.5,5.2h5.3v-2.4h0.6v2.4h1.7v0.4h-1.7v1.5h-0.6V215.5z"/>
		</g>
		<g>
			<path class="st3" d="M710.8,148.8c0,0-1.4-0.1-2.9-0.1c-2.2,0-3.6,1-3.6,3c0,0,1.8-0.5,3.3-0.5c2.5,0,3.8,0.7,3.8,2.1
				c0,1.5-1.3,2.3-3.9,2.3c-2.7,0-3.9-1.4-3.9-3.7c0-2.5,1.7-3.6,4.3-3.6c1.5,0,2.9,0.1,2.9,0.1L710.8,148.8z M704.3,152.1
				c0,1.9,0.9,3.2,3.2,3.2c2.1,0,3.2-0.7,3.2-2c0-1.2-1.2-1.8-3.1-1.8C706,151.5,704.3,152.1,704.3,152.1z"/>
			<path class="st3" d="M713.5,155.5v-0.3l3.9-2.6c1.4-0.9,2.3-1.5,2.3-2.5c0-1.1-1-1.5-2.9-1.5c-1.3,0-3.1,0.3-3.1,0.3l-0.1-0.4
				c0,0,1.6-0.3,3.2-0.3c2.3,0,3.5,0.5,3.5,1.8c0,1.1-0.9,1.7-2.3,2.6l-3.8,2.5h6.4v0.3L713.5,155.5L713.5,155.5z"/>
		</g>
		<g>
			<path class="st29" d="M689.4,399.9v-0.4l4.9-3.3c1.7-1.1,2.9-1.9,2.9-3.1c0-1.4-1.3-1.8-3.6-1.8c-1.6,0-3.9,0.4-3.9,0.4l-0.1-0.5
				c0,0,2-0.4,4-0.4c2.8,0,4.4,0.6,4.4,2.3c0,1.3-1.1,2.1-2.8,3.2l-4.7,3.1h8v0.4L689.4,399.9L689.4,399.9z"/>
			<path class="st29" d="M711,395.6c0,3.4-1.9,4.4-5,4.4s-5-0.9-5-4.4c0-3.9,1.9-4.8,5-4.8C709.3,390.8,711,391.7,711,395.6z
				 M701.9,395.6c0,3.2,1.6,3.9,4.2,3.9c2.6,0,4.2-0.7,4.2-3.9c0-3.5-1.4-4.3-4.2-4.3C703.3,391.3,701.9,392.1,701.9,395.6z"/>
			<path class="st29" d="M719.3,391h0.8v8.9h-0.8v-8.4l-4.1,1.7l-0.4-0.4L719.3,391z"/>
			<path class="st29" d="M734.3,391v0.5H727l-0.4,3.6c0,0,1.9-0.7,3.9-0.7c2.7,0,4.5,0.7,4.5,2.6c0,2.1-1.8,3.1-4.7,3.1
				c-2.2,0-4.5-0.3-4.5-0.3l0.1-0.5c0,0,2.4,0.3,4.4,0.3c2.3,0,3.9-0.9,3.9-2.6s-1.6-2.1-3.7-2.1c-2,0-3.9,0.7-3.9,0.7l-0.7-0.1
				l0.4-4.5H734.3z"/>
		</g>
	</g>
</g>
<g>
	<g>
		<rect x="73.9" y="27.9" class="st36" width="2.3" height="348.7"/>
		<rect x="73.9" y="45.8" class="st36" width="15.3" height="2.4"/>
		<rect x="73.9" y="111.3" class="st36" width="15.3" height="2.4"/>
		<rect x="73.9" y="178.7" class="st36" width="15.3" height="2.4"/>
		<rect x="73.9" y="242.3" class="st36" width="15.3" height="2.3"/>
		<rect x="73.9" y="307.7" class="st36" width="15.3" height="2.3"/>
	</g>
	<g>
		<rect x="75.1" y="373.7" class="st36" width="682.2" height="2.3"/>
	</g>
	<path class="st36" d="M59.2,370.6c0,3.4-1.5,4.4-4,4.4s-4-0.9-4-4.4c0-3.9,1.5-4.8,4-4.8C57.7,365.8,59.2,366.7,59.2,370.6z
		 M51.8,370.6c0,3.2,1.3,3.9,3.4,3.9c2.1,0,3.4-0.7,3.4-3.9c0-3.5-1.1-4.3-3.4-4.3C52.9,366.3,51.8,367.1,51.8,370.6z"/>
	<path class="st36" d="M41.7,309.7v-0.4l4-3.3c1.4-1.1,2.3-1.9,2.3-3.1c0-1.4-1.1-1.8-2.9-1.8c-1.3,0-3.1,0.4-3.1,0.4l-0.1-0.5
		c0,0,1.6-0.4,3.2-0.4c2.3,0,3.6,0.6,3.6,2.3c0,1.3-0.9,2.1-2.3,3.2l-3.8,3.1H49v0.4L41.7,309.7L41.7,309.7z"/>
	<path class="st36" d="M59.2,305.3c0,3.4-1.5,4.4-4,4.4s-4-0.9-4-4.4c0-3.9,1.5-4.8,4-4.8S59.2,301.4,59.2,305.3z M51.8,305.3
		c0,3.2,1.3,3.9,3.4,3.9c2.1,0,3.4-0.7,3.4-3.9c0-3.5-1.1-4.3-3.4-4.3C52.9,301,51.8,301.8,51.8,305.3z"/>
	<path class="st36" d="M59.2,240c0,3.4-1.5,4.4-4,4.4s-4-0.9-4-4.4c0-3.9,1.5-4.8,4-4.8S59.2,236.1,59.2,240z M51.8,240
		c0,3.2,1.3,3.9,3.4,3.9c2.1,0,3.4-0.7,3.4-3.9c0-3.5-1.1-4.3-3.4-4.3C52.9,235.7,51.8,236.5,51.8,240z"/>
	<path class="st36" d="M47.8,242.5h-6.1v-0.4l3.6-6.6H46l-3.5,6.5h5.3v-3h0.6v3h1.7v0.5h-1.7v1.9h-0.6V242.5z"/>
	<path class="st36" d="M59.2,174.7c0,3.4-1.5,4.4-4,4.4s-4-0.9-4-4.4c0-3.9,1.5-4.8,4-4.8S59.2,170.8,59.2,174.7z M51.8,174.7
		c0,3.2,1.3,3.9,3.4,3.9c2.1,0,3.4-0.7,3.4-3.9c0-3.5-1.1-4.3-3.4-4.3C52.9,170.3,51.8,171.2,51.8,174.7z"/>
	<path class="st36" d="M48.9,170.5c0,0-1.4-0.1-2.9-0.1c-2.3,0-3.6,1.3-3.6,3.7c0,0,1.8-0.6,3.3-0.6c2.5,0,3.8,0.9,3.8,2.7
		s-1.3,2.9-3.9,2.9c-2.7,0-3.9-1.8-3.9-4.7c0-3.1,1.7-4.5,4.3-4.5c1.5,0,3,0.1,3,0.1L48.9,170.5z M42.4,174.6c0,2.3,0.9,4,3.3,4
		c2.1,0,3.2-0.9,3.2-2.5c0-1.5-1.2-2.2-3.2-2.2C44.1,173.9,42.4,174.6,42.4,174.6z"/>
	<path class="st36" d="M59.2,109.4c0,3.4-1.5,4.4-4,4.4s-4-0.9-4-4.4c0-3.9,1.5-4.8,4-4.8S59.2,105.5,59.2,109.4z M51.8,109.4
		c0,3.2,1.3,3.9,3.4,3.9c2.1,0,3.4-0.7,3.4-3.9c0-3.5-1.1-4.3-3.4-4.3C52.9,105,51.8,105.9,51.8,109.4z"/>
	<path class="st36" d="M50.1,106.8c0,1.2-0.8,1.8-2.4,2.1c1.4,0.3,2.5,0.9,2.5,2.3c0,2-1.9,2.5-4.3,2.5c-2.2,0-4.3-0.6-4.3-2.4
		c0-1.5,1-2,2.4-2.4c-1.3-0.4-2.2-0.9-2.2-2.1c0-1.5,1.6-2.2,4.1-2.2C48.5,104.6,50.1,105.2,50.1,106.8z M49.6,111.2
		c0-1.4-1.3-1.8-2.7-2.1h-2c-1.5,0.3-2.5,0.8-2.5,2.2c0,1.5,1.6,1.9,3.6,1.9C48.1,113.3,49.6,112.9,49.6,111.2z M42.6,106.8
		c0,1.1,0.8,1.6,2.3,1.9h2c1.6-0.3,2.5-0.8,2.5-1.9c0-1.3-1.3-1.8-3.5-1.8C43.9,105,42.6,105.5,42.6,106.8z"/>
	<g>
		<path class="st36" d="M49.4,44c0,3.4-1.5,4.4-4,4.4s-4-0.9-4-4.4c0-3.9,1.5-4.8,4-4.8C48,39.3,49.4,40.2,49.4,44z M42,44.1
			c0,3.2,1.3,3.9,3.4,3.9c2.1,0,3.3-0.7,3.3-3.9c0-3.5-1.1-4.3-3.4-4.3C43.1,39.7,42,40.5,42,44.1z"/>
		<path class="st36" d="M59.2,44c0,3.4-1.5,4.4-4,4.4s-4-0.9-4-4.4c0-3.9,1.5-4.8,4-4.8C57.7,39.3,59.2,40.2,59.2,44z M51.8,44.1
			c0,3.2,1.3,3.9,3.4,3.9c2.1,0,3.4-0.7,3.4-3.9c0-3.5-1.1-4.3-3.4-4.3C52.9,39.7,51.8,40.5,51.8,44.1z"/>
	</g>
	<path class="st36" d="M36.5,39.4h0.6v8.9h-0.6v-8.4l-3.3,1.7L33,41.2L36.5,39.4z"/>
</g>
</svg>
