<?xml version="1.0" encoding="utf-8"?>
<!-- Generator: Adobe Illustrator 21.0.0, SVG Export Plug-In . SVG Version: 6.00 Build 0)  -->
<svg version="1.1" id="Layer_1" xmlns="http://www.w3.org/2000/svg" xmlns:xlink="http://www.w3.org/1999/xlink" x="0px" y="0px"
	 viewBox="0 0 62 62" style="enable-background:new 0 0 62 62;" xml:space="preserve">
<style type="text/css">
	.st0{fill:#0078D7;}
</style>
<g>
	<path class="st0" d="M61,50c0-2.5-1.5-4.8-3.8-5.8c-1.9-0.8-5.3-1.4-7.2-1.6h0c-0.1,0-0.2-0.1-0.2-0.3l0-2.5
		c0.2-0.1,0.4-0.3,0.5-0.4c1.4-1.2,2.3-3,2.5-4.8c0.3-0.2,0.5-0.5,0.6-0.9l0-0.1c0.2-0.9,0.4-1.8,0.4-2.7c0-0.5-0.3-0.9-0.8-0.9
		c-0.5,0-0.9,0.3-0.9,0.8c-0.1,0.8-0.2,1.5-0.4,2.3c-0.4,0.1-0.7,0.4-0.7,0.8c0,1.6-0.7,3.1-1.9,4.1c-0.4,0.3-0.6,0.5-0.8,0.6
		c-2.1,1.4-4.8,1.4-6.9,0c0,0-0.4-0.2-0.8-0.6c-1.2-1-1.9-2.5-1.9-4.2c0-0.4-0.3-0.7-0.7-0.8c-0.3-1.1-0.4-2.2-0.4-3.3
		c0-2.5,0-4.6,0-4.6c0-0.8,0.6-1.5,1.4-1.5c0.7,0,1.4-0.5,1.6-1.2c0.2-0.6,0.7-1,1.4-1l5.5,0h0c2.5,0,4.5,2,4.5,4.5l0,0.6
		c0,0.5,0.4,0.9,0.9,0.9h0c0.5,0,0.9-0.4,0.9-0.9l0-0.6c0-3.4-2.8-6.2-6.3-6.2c0,0,0,0,0,0l-5.5,0c-1.3,0-2.6,0.9-3,2.1
		c-1.8,0-3.2,1.5-3.2,3.2c0,0,0,0.2,0,0.6c-1-0.3-2.1-0.5-3.1-0.6c0,0,0,0,0,0c0,0,0,0,0,0c-0.8-0.1-1.6-0.2-2.2-0.3h0
		c-0.1,0-0.2-0.1-0.2-0.3l0-2.5c0.2-0.1,0.4-0.3,0.5-0.4c1.4-1.2,2.2-2.8,2.4-4.7c1-0.2,1.8-1.1,1.8-2.1l0-1.4
		c0-0.6-0.3-1.2-0.7-1.6l0-3.5C34.3,4.8,31.5,2,28,2l-5.5,0c-1.3,0-2.6,0.9-3,2.1c-1.8,0-3.2,1.5-3.2,3.2l0,4.4
		c-0.4,0.4-0.7,1-0.7,1.6l0,1.4c0,1.1,0.8,2,1.8,2.1c0.2,1.8,1.1,3.5,2.5,4.6c0.2,0.2,0.4,0.3,0.5,0.4l0,2.5c0,0.1-0.1,0.2-0.2,0.3
		h0c-1.9,0.3-5.3,0.8-7.2,1.7c-2.3,1-3.8,3.3-3.8,5.9l0,6H3.1c-1.2,0-2.1,1-2.1,2.1v4.7c0,1.2,1,2.1,2.1,2.1h0.6v2.8
		c0,0.5,0.4,0.9,0.9,0.9s0.9-0.4,0.9-0.9v-2.8h23.9c-0.4,0.8-0.6,1.8-0.6,2.8l0,7.6c0,0.2,0,0.4,0.1,0.5H6.7c-0.6,0-1.2-0.5-1.2-1.2
		v-2.8c0-0.5-0.4-0.9-0.9-0.9s-0.9,0.4-0.9,0.9v2.8c0,1.6,1.3,2.9,2.9,2.9h52h0c1.2,0,2.3-1.1,2.3-2.4L61,50z M41.8,40.8
		c1.9,0.8,4.1,0.8,6.2,0l0,1.5c0,0.4,0.1,0.7,0.3,1c-2.1,0.9-4.6,0.9-6.7,0c0.2-0.3,0.3-0.6,0.3-1L41.8,40.8z M33.8,27.8
		c0.1-0.2,0.2-0.4,0.3-0.6c0.6,0.1,1.2,0.3,1.7,0.4c0,0.6,0,1.3,0,2.1c0,1.3,0.2,2.6,0.5,3.9c0.1,0.4,0.3,0.7,0.6,0.9
		c0.1,1.4,0.7,2.8,1.6,3.9h-10l-0.8-5l0.7-1.3c0.4,0.1,0.8,0.2,1.2,0.1c0.7-0.1,1.4-0.5,1.8-1.1L33.8,27.8z M30.6,26.6
		c0.5,0.1,1.1,0.1,1.7,0.2l-2.3,3.2c-0.1,0.2-0.4,0.3-0.6,0.4c-0.3,0-0.5,0-0.7-0.2l-1.7-1.4L30.6,26.6z M26.2,32.3l-1.6,0l-0.7-1.2
		l1.5-1.2l1.5,1.2L26.2,32.3z M26.7,38.3h-2.5l0.7-4.3l1.2,0L26.7,38.3z M25.4,27.8L22,25.6c0.2-0.3,0.3-0.7,0.3-1.1l0-1.5
		c1,0.4,2,0.6,3.1,0.6h0c0,0,0,0,0,0c1.1,0,2.1-0.2,3.1-0.6l0,1.5c0,0.4,0.1,0.8,0.3,1.1L25.4,27.8z M19.5,5.9
		c0.7,0,1.4-0.5,1.6-1.2c0.2-0.6,0.7-1,1.4-1l5.5,0h0c2.5,0,4.5,2,4.5,4.5l0,3.2c-0.4,0.1-0.9,0.3-1.3,0.6c0,0,0,0-0.1,0l0-2.6
		c0-1.6-1.3-2.9-2.9-2.9c0,0,0,0,0,0l0,0c-0.4,0-0.8,0.1-1.2,0.2c-1.1,0.4-2.3,0.4-3.4,0c-0.4-0.1-0.8-0.2-1.2-0.2l0,0
		c-1.6,0-2.9,1.3-2.9,2.9l0,2.1c-0.5-0.1-1-0.2-1.4-0.3l0-4C18.1,6.6,18.7,5.9,19.5,5.9L19.5,5.9z M19.2,16.1c0-0.5-0.4-0.9-0.9-0.9
		c0,0,0,0,0,0l-0.5,0c0,0,0,0,0,0c-0.2,0-0.4-0.2-0.4-0.4l0-1.4c0-0.1,0-0.2,0.1-0.2c0.8,0,1.6,0.2,1.8,0.4c0.7,0.7,1.9,0.2,1.9-0.8
		l0-3.2c0-0.6,0.5-1.1,1.1-1.1l0,0c0.2,0,0.5,0,0.7,0.1c1.5,0.5,3,0.4,4.5,0c0.2-0.1,0.5-0.1,0.7-0.1l0,0h0c0.6,0,1.1,0.5,1.1,1.1
		l0,3.2c0,0.2,0.1,0.7,0.7,0.9c0.2,0.1,1.6,0.5,2.2-0.1c0.2-0.2,0.6-0.3,0.9-0.4c0,0.1,0.1,0.1,0.1,0.2l0,1.4c0,0.2-0.2,0.4-0.4,0.4
		l-0.5,0c-0.5,0-0.9,0.4-0.9,0.9c0,1.6-0.7,3.2-1.9,4.2c-0.2,0.2-0.5,0.4-0.7,0.6c-1.1,0.7-2.1,1.1-3.5,1.1c-1.6,0-3-0.6-4.3-1.6
		C19.9,19.3,19.2,17.7,19.2,16.1L19.2,16.1z M20.2,26.6l3.7,2.3l-1.7,1.4c-0.2,0.2-0.4,0.2-0.7,0.2c-0.3,0-0.5-0.2-0.6-0.4l-2.3-3.2
		C19.2,26.8,19.8,26.7,20.2,26.6L20.2,26.6z M13.9,28.1c0.7-0.3,1.8-0.6,2.9-0.9c0.1,0.2,0.1,0.4,0.3,0.6l2.4,3.3
		c0.4,0.6,1.1,1,1.8,1.1c0.4,0.1,0.8,0,1.2-0.1l0.7,1.3l-0.8,5H11.1l0-6C11.1,30.5,12.2,28.9,13.9,28.1L13.9,28.1z M3.1,45.6
		c-0.2,0-0.4-0.2-0.4-0.4v-4.7c0-0.2,0.2-0.4,0.4-0.4H40l0,2.2c0,0.1-0.1,0.2-0.2,0.3h0c-1.9,0.3-5.3,0.8-7.2,1.6
		c-0.7,0.3-1.4,0.8-1.9,1.3L3.1,45.6L3.1,45.6z M58.7,58.2H31.2h0h0c-0.3,0-0.5-0.2-0.5-0.5l0-7.6c0-1.8,1.1-3.5,2.7-4.3
		c1.6-0.7,4.8-1.2,6.4-1.5c3.2,1.8,7.2,1.8,10.3,0c1.6,0.2,4.8,0.7,6.4,1.4c1.7,0.7,2.8,2.4,2.8,4.2l0,7.6
		C59.2,57.9,59,58.2,58.7,58.2z"/>
</g>
</svg>
