<?xml version="1.0" encoding="utf-8"?>
<!-- Generator: Adobe Illustrator 21.0.0, SVG Export Plug-In . SVG Version: 6.00 Build 0)  -->
<svg version="1.1" id="Layer_1" xmlns="http://www.w3.org/2000/svg" xmlns:xlink="http://www.w3.org/1999/xlink" x="0px" y="0px"
	 viewBox="0 0 132 40" style="enable-background:new 0 0 132 40;" xml:space="preserve">
<style type="text/css">
	.st0{fill:#FFFFFF;}
	.st1{fill-rule:evenodd;clip-rule:evenodd;fill:#0078D7;}
	.st2{fill:#0078D7;}
</style>
<g id="Logo_5_">
	<path class="st0" d="M41.6,12.9c-0.1-0.6-0.1-1.3-0.1-2.1s0-1.5,0.1-2.1c0.1-0.6,0.3-1.1,0.5-1.6c0.2-0.5,0.5-0.8,0.9-1.1
		c0.4-0.3,0.8-0.5,1.4-0.6c0.5-0.1,1.2-0.2,1.9-0.2c0.9,0,1.7,0.1,2.3,0.3c0.6,0.2,1.1,0.5,1.5,1c0.4,0.5,0.6,1,0.8,1.7
		c0.1,0.7,0.2,1.5,0.2,2.5c0,1.5-0.2,2.7-0.6,3.5c-0.4,0.8-1,1.4-1.9,1.7c0.2,0.2,0.4,0.4,0.6,0.6c0.2,0.2,0.5,0.3,0.6,0.4
		c0.2,0.1,0.5,0.2,0.9,0.4l-1.6,1c-0.1,0-0.2-0.1-0.3-0.1c-0.1-0.1-0.3-0.1-0.3-0.1c-0.1,0-0.2-0.1-0.3-0.1C48.1,18,48,18,47.9,17.9
		c-0.1,0-0.2-0.1-0.3-0.2c-0.1-0.1-0.2-0.1-0.3-0.2c-0.1-0.1-0.2-0.1-0.3-0.2c-0.1-0.1-0.2-0.2-0.3-0.3c-0.1-0.1-0.2-0.2-0.2-0.3
		c-0.1-0.1-0.1-0.2-0.2-0.4c-0.8,0-1.4-0.1-1.9-0.2c-0.5-0.1-1-0.3-1.4-0.6c-0.4-0.3-0.7-0.6-0.9-1.1C41.8,14,41.7,13.5,41.6,12.9z
		 M43.9,9.6c0,0.3,0,0.7,0,1.3c0,0.5,0,1,0,1.3c0,0.3,0.1,0.6,0.1,1c0.1,0.4,0.2,0.6,0.4,0.8c0.2,0.2,0.4,0.3,0.7,0.5
		c0.3,0.1,0.7,0.2,1.1,0.2c0.4,0,0.7,0,1-0.1c0.3-0.1,0.5-0.2,0.7-0.4c0.2-0.2,0.3-0.4,0.4-0.5c0.1-0.2,0.2-0.4,0.2-0.8
		c0-0.3,0.1-0.6,0.1-0.9c0-0.2,0-0.6,0-1.1c0-0.5,0-0.8,0-1.1c0-0.2,0-0.5-0.1-0.9c0-0.3-0.1-0.6-0.2-0.8c-0.1-0.2-0.2-0.4-0.4-0.5
		c-0.2-0.2-0.4-0.3-0.7-0.4c-0.3-0.1-0.6-0.1-1-0.1c-0.5,0-0.8,0.1-1.1,0.2c-0.3,0.1-0.5,0.3-0.7,0.5c-0.2,0.2-0.3,0.4-0.4,0.8
		C44,9,44,9.3,43.9,9.6z M53.3,12.6V5.4h2.4v7.3c0,0.7,0.2,1.1,0.5,1.4c0.3,0.3,0.9,0.4,1.6,0.4c0.8,0,1.3-0.1,1.6-0.4
		c0.3-0.3,0.5-0.7,0.5-1.4V5.4h2.4v7.2c0,0.6-0.1,1.1-0.2,1.5c-0.1,0.4-0.3,0.8-0.6,1.1c-0.3,0.3-0.6,0.5-1,0.7
		c-0.4,0.2-0.8,0.3-1.3,0.4c-0.4,0.1-1,0.1-1.5,0.1c-0.6,0-1.1,0-1.5-0.1c-0.4-0.1-0.9-0.2-1.3-0.4c-0.4-0.2-0.7-0.4-1-0.7
		c-0.3-0.3-0.4-0.6-0.6-1.1C53.3,13.7,53.3,13.2,53.3,12.6z M63.7,16.3l3.6-9.5c0.2-0.5,0.5-0.9,0.8-1.1c0.3-0.2,0.7-0.4,1.2-0.4
		c0.9,0,1.6,0.5,2,1.5l3.5,9.5h-2.6l-0.9-2.7h-4.1l-0.9,2.7H63.7z M67.7,11.9h3l-1.5-4.4L67.7,11.9z M76.3,13.6V5.4h2.5V13
		c0,0.6,0.1,1,0.3,1.2s0.7,0.3,1.4,0.3h3.2v1.7c-1.4,0.1-2.5,0.1-3.1,0.1c-0.3,0-0.5,0-0.7,0c-0.2,0-0.4,0-0.7,0
		c-0.3,0-0.5,0-0.7-0.1c-0.2,0-0.4-0.1-0.6-0.1c-0.2-0.1-0.4-0.1-0.5-0.2c-0.1-0.1-0.3-0.2-0.4-0.3c-0.1-0.1-0.3-0.3-0.3-0.5
		c-0.1-0.2-0.1-0.4-0.2-0.6C76.3,14.2,76.3,13.9,76.3,13.6z M85.1,16.3V5.4h2.5v10.9H85.1z M90.1,16.3V8c0-0.3,0-0.5,0.1-0.8
		s0.1-0.4,0.2-0.6s0.2-0.3,0.3-0.5S91,6,91.2,5.9c0.1-0.1,0.3-0.2,0.5-0.2c0.2-0.1,0.4-0.1,0.6-0.1c0.2,0,0.4-0.1,0.7-0.1
		c0.3,0,0.5,0,0.7,0c0.2,0,0.4,0,0.7,0c0.8,0,1.9,0,3.3,0.1v1.7h-3.3c-0.7,0-1.2,0.1-1.4,0.3c-0.2,0.2-0.3,0.6-0.3,1.2v1.2h4.8v1.8
		h-4.8v4.6H90.1z M98.9,5.4h2.6l2.5,4.5l2.6-4.5h2.5l-3.9,6.7v4.2h-2.5v-4.2L98.9,5.4z M110.6,16.1V5.6c1.2-0.2,2.5-0.3,3.9-0.3
		c0.6,0,1.1,0,1.5,0.1c0.5,0.1,0.9,0.1,1.2,0.3c0.4,0.1,0.7,0.3,0.9,0.4c0.3,0.2,0.5,0.4,0.7,0.6c0.2,0.2,0.4,0.5,0.5,0.8
		c0.1,0.3,0.2,0.6,0.3,1c0.1,0.4,0.1,0.7,0.2,1.1c0,0.4,0,0.8,0,1.3c0,0.6,0,1-0.1,1.5c0,0.4-0.1,0.8-0.2,1.2s-0.2,0.7-0.4,1
		c-0.2,0.3-0.4,0.5-0.7,0.8c-0.3,0.2-0.6,0.4-1,0.6c-0.4,0.1-0.8,0.3-1.3,0.3c-0.5,0.1-1.1,0.1-1.7,0.1
		C113.2,16.4,111.8,16.3,110.6,16.1z M113.1,14.5c0.4,0.1,0.8,0.1,1.1,0.1c0.4,0,0.8,0,1.2-0.1c0.3-0.1,0.6-0.2,0.8-0.3
		c0.2-0.1,0.4-0.3,0.6-0.5c0.2-0.2,0.3-0.4,0.4-0.6c0.1-0.2,0.1-0.4,0.2-0.7c0-0.3,0.1-0.6,0.1-0.8c0-0.2,0-0.5,0-0.9s0-0.7,0-0.9
		c0-0.2,0-0.5-0.1-0.8c0-0.3-0.1-0.6-0.2-0.7c-0.1-0.2-0.2-0.3-0.4-0.6c-0.2-0.2-0.3-0.4-0.6-0.5c-0.2-0.1-0.5-0.2-0.8-0.3
		c-0.3-0.1-0.7-0.1-1.2-0.1c-0.3,0-0.7,0-1.1,0.1V14.5z M122.2,13.6V8c0-0.4,0-0.7,0.1-0.9c0.1-0.3,0.2-0.5,0.3-0.7s0.3-0.3,0.5-0.5
		c0.2-0.1,0.4-0.2,0.7-0.3c0.2-0.1,0.5-0.1,0.8-0.2c0.3,0,0.6-0.1,0.8-0.1c0.2,0,0.6,0,0.9,0c1.1,0,2.2,0,3.3,0.1v1.7h-3.3
		c-0.7,0-1.2,0.1-1.4,0.3c-0.2,0.2-0.3,0.6-0.3,1.2v1.2h4.8v1.8h-4.8V13c0,0.6,0.1,1,0.3,1.2c0.2,0.2,0.7,0.3,1.4,0.3h3.3v1.7
		c-1.3,0.1-2.3,0.1-3.3,0.1c-0.3,0-0.5,0-0.7,0c-0.2,0-0.4,0-0.7,0c-0.3,0-0.5,0-0.7-0.1c-0.2,0-0.4-0.1-0.6-0.1
		c-0.2-0.1-0.4-0.1-0.5-0.2c-0.1-0.1-0.3-0.2-0.4-0.3c-0.1-0.1-0.3-0.3-0.3-0.5c-0.1-0.2-0.1-0.4-0.2-0.6
		C122.2,14.2,122.2,13.9,122.2,13.6z"/>
	<path class="st0" d="M41.4,28.9v-5.9h0.8v2.6h3.7v-2.6h0.8v5.9h-0.8v-2.8h-3.7v2.8H41.4z M48.3,23.3c-0.1-0.1-0.1-0.2-0.1-0.4
		c0-0.2,0-0.3,0.1-0.4c0.1-0.1,0.2-0.1,0.3-0.1c0.2,0,0.3,0,0.3,0.1c0.1,0.1,0.1,0.2,0.1,0.4c0,0.2,0,0.3-0.1,0.4
		c-0.1,0.1-0.2,0.1-0.3,0.1C48.5,23.4,48.4,23.4,48.3,23.3z M48.3,28.9v-4.5H49v4.5H48.3z M50.6,28.9v-3.5c0-0.3,0-0.5,0-0.8
		c0.6-0.2,1.2-0.4,2-0.4c0.2,0,0.4,0,0.5,0l-0.1,0.5c-0.1,0-0.3,0-0.4,0c-0.5,0-0.9,0.1-1.3,0.2c0,0.2,0,0.4,0,0.7v3.2H50.6z
		 M54.3,23.3c-0.1-0.1-0.1-0.2-0.1-0.4c0-0.2,0-0.3,0.1-0.4c0.1-0.1,0.2-0.1,0.3-0.1c0.2,0,0.3,0,0.3,0.1c0.1,0.1,0.1,0.2,0.1,0.4
		c0,0.2,0,0.3-0.1,0.4c-0.1,0.1-0.2,0.1-0.3,0.1C54.4,23.4,54.3,23.4,54.3,23.3z M54.2,28.9v-4.5H55v4.5H54.2z M56.5,28.9v-3.4
		c0-0.3,0-0.6,0-0.8c0.7-0.3,1.5-0.4,2.4-0.4c0.3,0,0.5,0,0.7,0c0.2,0,0.4,0.1,0.5,0.1c0.1,0,0.3,0.1,0.4,0.2
		c0.1,0.1,0.2,0.2,0.2,0.3c0.1,0.1,0.1,0.2,0.1,0.3c0,0.1,0.1,0.2,0.1,0.3c0,0.1,0,0.2,0,0.4v2.9h-0.7V26c0-0.2,0-0.3,0-0.4
		c0-0.1,0-0.2-0.1-0.3c0-0.1-0.1-0.2-0.2-0.2C60,25,59.9,25,59.7,24.9s-0.3-0.1-0.4-0.1c-0.2,0-0.4,0-0.6,0c-0.2,0-0.5,0-0.8,0.1
		c-0.3,0-0.5,0.1-0.7,0.2c0,0.2,0,0.5,0,0.7v3.1H56.5z M62.4,26.5c0-0.6,0.1-1,0.3-1.4s0.4-0.6,0.8-0.7c0.3-0.1,0.8-0.2,1.4-0.2
		c0.8,0,1.5,0.1,2,0.4c0,0.3,0,0.5,0,0.8v3.8c0,0.3-0.1,0.5-0.2,0.7c-0.1,0.2-0.3,0.3-0.5,0.4c-0.2,0.1-0.4,0.2-0.6,0.2
		c-0.2,0-0.5,0.1-0.8,0.1c-0.6,0-1.2-0.1-2.1-0.2l0.1-0.5c0.7,0.1,1.3,0.1,1.8,0.1c0.6,0,1-0.1,1.2-0.2c0.2-0.2,0.3-0.4,0.3-0.8
		v-0.4c-0.5,0.1-1,0.2-1.5,0.2c-0.5,0-1-0.1-1.3-0.2c-0.3-0.1-0.6-0.4-0.7-0.7C62.5,27.6,62.4,27.1,62.4,26.5z M63.1,26.5
		c0,0.2,0,0.4,0,0.6c0,0.2,0.1,0.3,0.1,0.4c0,0.1,0.1,0.3,0.2,0.3s0.2,0.2,0.3,0.2c0.1,0.1,0.3,0.1,0.5,0.1c0.2,0,0.4,0,0.6,0
		c0.4,0,0.8-0.1,1.3-0.2v-2.4c0-0.2,0-0.4,0-0.7c-0.4-0.1-0.8-0.2-1.3-0.2c-0.3,0-0.6,0-0.8,0.1c-0.2,0.1-0.4,0.2-0.5,0.3
		c-0.1,0.2-0.2,0.3-0.3,0.5C63.1,26,63.1,26.2,63.1,26.5z M71.3,28.9l0.4-5.5c0-0.2,0.1-0.3,0.1-0.3s0.2-0.1,0.4-0.1
		c0.2,0,0.4,0.1,0.6,0.4l2.1,3.9l2.1-3.9c0.1-0.3,0.3-0.4,0.6-0.4c0.2,0,0.3,0,0.4,0.1s0.1,0.2,0.1,0.3l0.4,5.5h-0.8l-0.3-5l-2,3.8
		c-0.1,0.1-0.1,0.2-0.2,0.2c-0.1,0.1-0.2,0.1-0.3,0.1c-0.2,0-0.3-0.1-0.5-0.3l-2-3.8l-0.3,5H71.3z M79.7,27.6c0-0.8,0.5-1.3,1.4-1.4
		c0.4-0.1,1.2-0.1,2.3-0.1v-0.2c0-0.4-0.1-0.7-0.3-0.8c-0.2-0.2-0.6-0.2-1.2-0.2c-0.5,0-1.1,0-1.8,0.1L80,24.4
		c0.8-0.1,1.5-0.2,2-0.2c0.2,0,0.5,0,0.7,0c0.2,0,0.4,0.1,0.6,0.1c0.2,0.1,0.3,0.1,0.5,0.2c0.1,0.1,0.2,0.2,0.3,0.4
		c0.1,0.2,0.1,0.4,0.1,0.6v2.1c0,0.3,0,0.5,0,0.8c-0.6,0.2-1.3,0.4-2.3,0.4c-0.7,0-1.3-0.1-1.6-0.3C79.9,28.4,79.7,28,79.7,27.6z
		 M80.4,27.5c0,0.3,0.1,0.6,0.3,0.7c0.2,0.1,0.6,0.2,1.1,0.2c0.6,0,1.1-0.1,1.5-0.2c0-0.2,0-0.4,0-0.7v-1c-1,0-1.6,0.1-2,0.1
		c-0.3,0.1-0.5,0.1-0.7,0.3C80.5,27,80.4,27.2,80.4,27.5z M85.4,26.6c0-0.9,0.2-1.5,0.5-1.8c0.3-0.3,0.9-0.5,1.7-0.5
		c0.5,0,1,0.1,1.5,0.2v-1.9h0.7v5.2c0,0.3,0,0.5,0,0.8c-0.6,0.2-1.2,0.4-2,0.4c-0.6,0-1.1-0.1-1.4-0.2c-0.3-0.1-0.6-0.4-0.8-0.7
		C85.5,27.6,85.4,27.2,85.4,26.6z M86.1,26.6c0,0.3,0,0.6,0.1,0.8c0.1,0.2,0.1,0.4,0.3,0.6c0.1,0.2,0.3,0.3,0.5,0.3
		c0.2,0.1,0.5,0.1,0.8,0.1c0.5,0,1-0.1,1.3-0.2c0-0.3,0-0.5,0-0.7v-2.5c-0.4-0.1-0.8-0.2-1.3-0.2c-0.3,0-0.6,0-0.8,0.1
		c-0.2,0-0.4,0.1-0.5,0.2s-0.2,0.2-0.3,0.4c-0.1,0.2-0.1,0.3-0.1,0.5C86.2,26.1,86.1,26.3,86.1,26.6z M91.3,26.6
		c0-0.8,0.2-1.4,0.5-1.8c0.4-0.4,1-0.5,1.8-0.5c0.4,0,0.8,0,1.1,0.1c0.3,0.1,0.5,0.2,0.7,0.4c0.2,0.2,0.3,0.4,0.4,0.6
		C96,25.7,96,26,96,26.3c0,0.1,0,0.3,0,0.4c-0.3,0-0.7,0.1-1.3,0.1c-0.5,0-1,0.1-1.4,0.1l-1.3,0c0,0.2,0.1,0.5,0.1,0.6
		c0.1,0.2,0.2,0.3,0.3,0.4c0.1,0.1,0.3,0.2,0.5,0.3c0.2,0.1,0.5,0.1,0.8,0.1c0.5,0,1.1,0,1.9-0.1l0.1,0.5c-0.8,0.1-1.6,0.1-2.3,0.1
		c-0.3,0-0.7,0-0.9-0.1c-0.3-0.1-0.5-0.2-0.6-0.3c-0.2-0.1-0.3-0.3-0.4-0.5c-0.1-0.2-0.2-0.4-0.2-0.6C91.4,27.1,91.3,26.9,91.3,26.6
		z M92.1,26.5l1.4-0.1c0.6,0,1.2-0.1,1.8-0.1c0-0.1,0-0.2,0-0.3c0-0.4-0.1-0.7-0.4-0.9c-0.2-0.2-0.7-0.3-1.2-0.3
		c-0.3,0-0.6,0-0.8,0.1c-0.2,0.1-0.4,0.2-0.5,0.3c-0.1,0.2-0.2,0.3-0.2,0.5C92.1,25.9,92.1,26.2,92.1,26.5z M99.9,24.4
		c0-0.6,0.2-1,0.6-1.2c0.4-0.2,1-0.4,1.8-0.4c0.6,0,1.2,0,1.8,0.1l-0.1,0.5c-0.6-0.1-1-0.1-1.4-0.1c-0.2,0-0.4,0-0.6,0
		c-0.2,0-0.3,0-0.5,0.1c-0.2,0-0.3,0.1-0.4,0.2c-0.1,0.1-0.2,0.2-0.3,0.3c-0.1,0.1-0.1,0.2-0.1,0.4c0,0.1,0,0.2,0,0.3
		c0,0.1,0.1,0.2,0.1,0.3c0.1,0.1,0.1,0.1,0.2,0.2c0.1,0,0.2,0.1,0.3,0.2c0.1,0.1,0.3,0.1,0.4,0.1c0.1,0,0.3,0.1,0.6,0.1
		c0.2,0.1,0.5,0.1,0.6,0.2c0.2,0.1,0.4,0.1,0.5,0.2c0.2,0.1,0.3,0.2,0.4,0.3c0.1,0.1,0.2,0.3,0.3,0.4c0.1,0.2,0.1,0.4,0.1,0.6
		c0,0.6-0.2,1-0.6,1.3c-0.4,0.3-1,0.4-1.9,0.4c-0.6,0-1.2,0-1.8-0.1l0.1-0.5c0.6,0.1,1.2,0.1,1.7,0.1c0.2,0,0.4,0,0.6,0
		c0.2,0,0.3-0.1,0.5-0.1c0.1,0,0.3-0.1,0.4-0.2c0.1-0.1,0.2-0.2,0.2-0.3c0.1-0.1,0.1-0.3,0.1-0.4c0-0.1,0-0.3-0.1-0.4
		c-0.1-0.1-0.1-0.2-0.2-0.3c-0.1-0.1-0.2-0.1-0.3-0.2c-0.1-0.1-0.3-0.1-0.4-0.2s-0.3-0.1-0.5-0.1c-0.2-0.1-0.4-0.1-0.6-0.2
		c-0.2,0-0.3-0.1-0.5-0.2c-0.2-0.1-0.3-0.1-0.4-0.2s-0.2-0.2-0.3-0.3c-0.1-0.1-0.1-0.2-0.2-0.4C100,24.8,99.9,24.6,99.9,24.4z
		 M105.6,23.3c-0.1-0.1-0.1-0.2-0.1-0.4c0-0.2,0-0.3,0.1-0.4c0.1-0.1,0.2-0.1,0.3-0.1c0.2,0,0.3,0,0.3,0.1c0.1,0.1,0.1,0.2,0.1,0.4
		c0,0.2,0,0.3-0.1,0.4c-0.1,0.1-0.2,0.1-0.3,0.1C105.8,23.4,105.7,23.4,105.6,23.3z M105.6,28.9v-4.5h0.7v4.5H105.6z M107.9,28.9
		v-3.4c0-0.2,0-0.5,0-0.8c0.3-0.1,0.7-0.2,1.1-0.3c0.4-0.1,0.8-0.1,1.2-0.1c0.6,0,1.1,0.1,1.4,0.4c0.6-0.2,1.3-0.4,2-0.4
		c0.3,0,0.6,0,0.8,0.1c0.2,0.1,0.4,0.1,0.5,0.2c0.1,0.1,0.2,0.2,0.3,0.4c0.1,0.1,0.1,0.3,0.2,0.4c0,0.1,0,0.3,0,0.5v2.9h-0.7V26
		c0-0.2,0-0.4-0.1-0.6c0-0.1-0.1-0.3-0.2-0.4c-0.1-0.1-0.2-0.2-0.4-0.2c-0.2,0-0.4-0.1-0.7-0.1c-0.2,0-0.5,0-0.7,0.1
		c-0.3,0.1-0.5,0.1-0.7,0.2c0.1,0.2,0.1,0.5,0.1,0.8v2.9h-0.7V26c0-0.2,0-0.4-0.1-0.6c0-0.1-0.1-0.3-0.2-0.4
		c-0.1-0.1-0.2-0.2-0.4-0.2c-0.2,0-0.4-0.1-0.7-0.1c-0.2,0-0.4,0-0.6,0.1c-0.3,0-0.5,0.1-0.6,0.2c0,0.2,0,0.4,0,0.7v3.1H107.9z
		 M117,30.5v-5.1c0-0.3,0-0.5,0-0.8c0.6-0.2,1.2-0.4,2-0.4c0.6,0,1.1,0.1,1.4,0.2c0.3,0.1,0.6,0.4,0.8,0.7c0.2,0.3,0.3,0.8,0.3,1.4
		c0,0.9-0.2,1.5-0.5,1.8c-0.3,0.3-0.9,0.5-1.7,0.5c-0.5,0-1-0.1-1.5-0.2v1.8H117z M117.7,28.2c0.4,0.1,0.8,0.2,1.3,0.2
		c0.3,0,0.6,0,0.8-0.1c0.2,0,0.4-0.1,0.5-0.2c0.1-0.1,0.2-0.2,0.3-0.4c0.1-0.2,0.1-0.3,0.1-0.5c0-0.2,0-0.4,0-0.7
		c0-0.3,0-0.6-0.1-0.8c-0.1-0.2-0.1-0.4-0.3-0.6c-0.1-0.2-0.3-0.3-0.5-0.3s-0.5-0.1-0.8-0.1c-0.5,0-0.9,0.1-1.3,0.2
		c0,0.3,0,0.5,0,0.7V28.2z M122.8,27.7v-5.1h0.7v5.1c0,0.5,0.1,0.8,0.4,1.1l-0.6,0.3C123,28.7,122.8,28.3,122.8,27.7z M125,26.6
		c0-0.8,0.2-1.4,0.5-1.8c0.4-0.4,1-0.5,1.8-0.5c0.4,0,0.8,0,1.1,0.1c0.3,0.1,0.5,0.2,0.7,0.4c0.2,0.2,0.3,0.4,0.4,0.6
		c0.1,0.2,0.1,0.5,0.1,0.8c0,0.1,0,0.3,0,0.4c-0.3,0-0.7,0.1-1.3,0.1c-0.5,0-1,0.1-1.4,0.1l-1.3,0c0,0.2,0.1,0.5,0.1,0.6
		c0.1,0.2,0.2,0.3,0.3,0.4c0.1,0.1,0.3,0.2,0.5,0.3c0.2,0.1,0.5,0.1,0.8,0.1c0.5,0,1.1,0,1.9-0.1l0.1,0.5c-0.8,0.1-1.6,0.1-2.3,0.1
		c-0.3,0-0.7,0-0.9-0.1s-0.5-0.2-0.6-0.3c-0.2-0.1-0.3-0.3-0.4-0.5c-0.1-0.2-0.2-0.4-0.2-0.6C125,27.1,125,26.9,125,26.6z
		 M125.7,26.5l1.4-0.1c0.6,0,1.2-0.1,1.8-0.1c0-0.1,0-0.2,0-0.3c0-0.4-0.1-0.7-0.4-0.9c-0.2-0.2-0.7-0.3-1.2-0.3
		c-0.3,0-0.6,0-0.8,0.1c-0.2,0.1-0.4,0.2-0.5,0.3c-0.1,0.2-0.2,0.3-0.2,0.5C125.7,25.9,125.7,26.2,125.7,26.5z"/>
	<path class="st1" d="M1,5.3h4.7v19h17.4v10.4l-5.3-5.9H1V5.3z M30.4,28.8h-4.7v-19H8.4V5.3h22.1V28.8z"/>
	<rect x="41.4" y="20" class="st2" width="88.2" height="0.7"/>
</g>
</svg>
