<?xml version="1.0" encoding="utf-8"?>
<!-- Generator: Adobe Illustrator 21.0.0, SVG Export Plug-In . SVG Version: 6.00 Build 0)  -->
<svg version="1.1" id="Layer_1" xmlns="http://www.w3.org/2000/svg" xmlns:xlink="http://www.w3.org/1999/xlink" x="0px" y="0px"
	 viewBox="0 0 62 62" style="enable-background:new 0 0 62 62;" xml:space="preserve">
<style type="text/css">
	.st0{fill:#0078D7;}
</style>
<g>
	<g>
		<path class="st0" d="M29.9,21.8H8.3c-0.5,0-0.9,0.4-0.9,0.9c0,0.5,0.4,0.9,0.9,0.9h21.6c0.5,0,0.9-0.4,0.9-0.9
			C30.8,22.2,30.4,21.8,29.9,21.8z"/>
		<path class="st0" d="M29.9,28.3H8.3c-0.5,0-0.9,0.4-0.9,0.9c0,0.5,0.4,0.9,0.9,0.9h21.6c0.5,0,0.9-0.4,0.9-0.9
			C30.8,28.7,30.4,28.3,29.9,28.3z"/>
		<path class="st0" d="M30.8,35.6c0-0.5-0.4-0.9-0.9-0.9H8.3c-0.5,0-0.9,0.4-0.9,0.9s0.4,0.9,0.9,0.9h21.6
			C30.4,36.5,30.8,36.1,30.8,35.6z"/>
		<path class="st0" d="M8.3,41.3c-0.5,0-0.9,0.4-0.9,0.9S7.8,43,8.3,43h10.1c0.5,0,0.9-0.4,0.9-0.9s-0.4-0.9-0.9-0.9H8.3z"/>
		<path class="st0" d="M9.1,13.6h9.2c0.9,0,1.7-0.8,1.7-1.7V8.8c0-0.9-0.8-1.7-1.7-1.7H9.1c-0.9,0-1.7,0.8-1.7,1.7v3.1
			C7.4,12.8,8.2,13.6,9.1,13.6z M9.2,8.9h9.1v3H9.2V8.9z"/>
		<path class="st0" d="M25,59.2H6c-1.7,0-3-1.4-3-3V5.8c0-1.7,1.4-3,3-3h28.6c0.1,0,0.2,0,0.3,0v6c0,2.6,2.2,4.8,4.8,4.8h6
			c0,0.1,0,0.2,0,0.3v1.3c0,0.5,0.4,0.9,0.9,0.9s0.9-0.4,0.9-0.9v-1.3c0-1-0.4-2-1.1-2.7l-9.1-9.1C36.7,1.4,35.7,1,34.7,1H6
			C3.4,1,1.2,3.2,1.2,5.8v50.4C1.2,58.8,3.4,61,6,61H25c0.5,0,0.9-0.4,0.9-0.9S25.5,59.2,25,59.2L25,59.2z M36.8,4l7.8,7.8h-4.8
			c-1.7,0-3-1.4-3-3V4z"/>
		<path class="st0" d="M60.7,50.4c0-2.7-1.6-5.1-4-6.1c-2-0.9-5.6-1.4-7.6-1.7c0,0,0,0,0,0c-0.2,0-0.3-0.2-0.3-0.3l0-2.7
			c0.2-0.1,0.4-0.3,0.6-0.5c1.4-1.2,2.3-3,2.6-5c1.1-0.2,1.9-1.1,1.9-2.2l0-1.5c0-0.6-0.3-1.2-0.7-1.6l0-3.7c0-3.6-3-6.5-6.6-6.5
			c0,0,0,0,0,0l-5.9,0c-1.4,0-2.7,0.9-3.1,2.2c0,0,0,0,0,0c-1.9,0-3.3,1.5-3.3,3.4l0,4.7c-0.5,0.4-0.7,1-0.7,1.7l0,1.5
			c0,0.6,0.2,1.2,0.7,1.6c0.3,0.3,0.8,0.6,1.3,0.6c0.2,1.9,1.2,3.7,2.6,4.9c0.2,0.2,0.4,0.3,0.6,0.5l0,2.7c0,0.2-0.1,0.3-0.3,0.3h0
			c-2,0.3-5.6,0.8-7.6,1.7c-2.4,1.1-4,3.5-4,6.2l0,6.7c0,2.1,1.7,3.7,3.7,3.7h0H57h0c1,0,1.9-0.4,2.7-1.2c0.7-0.7,1.1-1.7,1.1-2.7
			L60.7,50.4z M49.2,44.4c0.2,0,0.4,0.1,0.7,0.1c0.2,0,0.3,0.2,0.3,0.3c0,0.1,0,0.2-0.1,0.4l-3,2.6c-0.1,0.1-0.3,0.1-0.4,0l0,0
			c0,0,0,0,0,0l-1.3-0.9L49.2,44.4z M43.7,45.8L40,43.5c0.2-0.3,0.3-0.7,0.3-1.1l0-1.7c2.1,0.9,4.4,0.9,6.7,0l0,1.7
			c0,0.4,0.1,0.8,0.4,1.1L43.7,45.8z M45,48.8l-0.6,1.4l-1.3,0l-0.6-1.4l1.2-0.9L45,48.8z M37.5,22.5c0.8,0,1.4-0.5,1.7-1.2
			c0.2-0.6,0.8-1.1,1.5-1.1l5.9,0h0c2.6,0,4.8,2.1,4.8,4.8l0,3.4c-0.3,0.1-0.6,0.2-0.9,0.3c-0.2,0.1-0.5,0.2-0.7,0.2l0-2.6
			c0-1.7-1.4-3-3-3c0,0,0,0,0,0h0c-0.4,0-0.9,0.1-1.3,0.2c-1.1,0.4-2.5,0.4-3.6,0c-0.4-0.1-0.9-0.2-1.3-0.2l0,0c-1.7,0-3,1.4-3,3
			l0,2.3c-0.5-0.2-1.1-0.3-1.6-0.3l0-4.3C35.9,23.3,36.6,22.5,37.5,22.5L37.5,22.5z M37.1,33.3c0-0.5-0.4-0.9-0.9-0.9c0,0,0,0,0,0
			l-0.5,0c0,0,0,0,0,0c-0.1,0-0.2,0-0.3-0.1c-0.1-0.1-0.1-0.2-0.1-0.3l0-1.5c0-0.1,0.1-0.2,0.1-0.3c0.8,0,1.8,0.2,2,0.4
			c0.2,0.2,0.5,0.3,0.8,0.3c0.1,0,0.3,0,0.4-0.1c0.4-0.2,0.7-0.6,0.7-1l0-3.4c0-0.7,0.6-1.3,1.2-1.3c0.1,0,0.4,0,0.8,0.1
			c1.5,0.5,3.2,0.5,4.7,0c0.4-0.1,0.8-0.1,0.8-0.1h0c0.7,0,1.3,0.6,1.3,1.2l0,2.9c0,0.7,0.5,1.3,1.2,1.4c0.7,0.1,1.4,0,2-0.4
			c0.2-0.1,0.5-0.2,0.7-0.2c0.1,0.1,0.1,0.2,0.1,0.3l0,1.5c0,0.3-0.2,0.5-0.5,0.5l-0.5,0c-0.5,0-0.9,0.4-0.9,0.9
			c0,1.8-0.8,3.4-2,4.5c-0.3,0.2-0.5,0.4-0.8,0.6c-2.6,1.6-5.1,1.5-7.5,0c-0.3-0.2-0.5-0.4-0.8-0.6C37.9,36.7,37.1,35.1,37.1,33.3
			L37.1,33.3z M40.4,59.2h-6.6l0-3.5c0-0.5-0.4-0.9-0.9-0.9c0,0,0,0,0,0c-0.5,0-0.9,0.4-0.9,0.9l0,3.5h-1.5c0,0,0,0,0,0
			c-1.1,0-2-0.9-2-2l0-6.7c0-2,1.1-3.8,2.9-4.6c1-0.5,2.6-0.8,4-1.1c0,0.6,0.3,1.2,0.7,1.6l3,2.6c0.4,0.3,0.9,0.5,1.4,0.5
			c0.1,0,0.2,0,0.2,0l0.7,1.6L40.4,59.2z M40.9,47.8c-0.1,0.1-0.3,0.1-0.4,0l-3-2.6c-0.2-0.1-0.1-0.3-0.1-0.4c0-0.1,0.1-0.2,0.3-0.3
			c0.2,0,0.5-0.1,0.7-0.1l3.9,2.4L40.9,47.8z M42.2,59.2l1.1-7.3l0.9,0l1.1,7.3L42.2,59.2z M58.4,58.6C58,59,57.5,59.2,57,59.2h-1.5
			l0-3.6c0-0.5-0.4-0.9-0.9-0.9c0,0,0,0,0,0c-0.5,0-0.9,0.4-0.9,0.9l0,3.6h-6.6l-1.3-8l0.7-1.6c0.1,0,0.2,0,0.2,0
			c0.5,0,1-0.2,1.4-0.5l3-2.6c0.5-0.4,0.7-1,0.7-1.6c1.5,0.3,3,0.6,4.1,1.1c1.8,0.8,3,2.6,3,4.5l0,6.7C59,57.7,58.8,58.2,58.4,58.6
			L58.4,58.6z"/>
	</g>
</g>
</svg>
