<?xml version="1.0" encoding="utf-8"?>
<!-- Generator: Adobe Illustrator 21.0.0, SVG Export Plug-In . SVG Version: 6.00 Build 0)  -->
<svg version="1.1" id="Layer_1" xmlns="http://www.w3.org/2000/svg" xmlns:xlink="http://www.w3.org/1999/xlink" x="0px" y="0px"
	 viewBox="0 0 62 62" style="enable-background:new 0 0 62 62;" xml:space="preserve">
<style type="text/css">
	.st0{fill:#0078D7;}
</style>
<g>
	<g>
		<g>
			<path class="st0" d="M60.2,53.4c-0.5-0.1-0.9,0.2-1.1,0.6c-0.2,0.9-0.7,1.8-1.2,2.5c-0.3-1.5-1.2-2.8-2.4-3.6
				c0.2-0.5,0.4-1,0.4-1.5c0-1.9-1.5-3.5-3.4-3.5c-1.9,0-3.4,1.6-3.4,3.5c0,0.6,0.1,1.1,0.4,1.5c-1.2,0.8-2.1,2.1-2.4,3.6
				c-0.9-1.2-1.4-2.6-1.4-4.2c0-3.8,3.1-6.9,6.9-6.9c3,0,5.7,2,6.6,4.9c0.1,0.5,0.6,0.7,1.1,0.6c0.5-0.1,0.7-0.6,0.6-1.1
				c-0.5-1.7-1.6-3.3-3.1-4.4c-1.3-1-2.7-1.5-4.3-1.7v-4.6c0-1.2-1-2.2-2.2-2.2H32v-3.2c8.7-0.5,15.6-7.7,15.6-16.5
				C47.6,8.4,40.2,1,31.1,1C23,1,16,6.9,14.8,15c-0.1,0.5,0.3,0.9,0.7,1c0.5,0.1,0.9-0.3,1-0.7c1.1-7.1,7.2-12.5,14.6-12.5
				c8.1,0,14.7,6.6,14.7,14.7c0,3.4-1.1,6.5-3.1,9c-0.2-0.6-0.6-1.2-1-1.6c-1.1-1.1-2.6-1.7-6.9-2.3l0-1.8c1.3-1,2-2.3,2.2-3.7
				c0.3-0.1,0.6-0.2,0.8-0.5c0.3-0.3,0.5-0.8,0.5-1.3l0-1.1c0-0.5-0.2-0.9-0.5-1.3l0-2.5c0-2.7-2.2-4.9-4.9-4.9c0,0,0,0,0,0l-4.1,0
				c-1,0-2,0.6-2.4,1.6C25.1,7.3,24,8.4,24,9.8l0,3.2c-0.3,0.3-0.5,0.8-0.5,1.3l0,1.1c0,0.9,0.6,1.6,1.4,1.8
				c0.2,1.4,0.9,2.7,2.2,3.7l0,1.8c-1.5,0.2-4.2,0.6-5.6,1.3c-1,0.5-1.8,1.4-2.2,2.4c-1.5-2-2.6-4.5-2.9-7.2c-0.1-0.5-0.5-0.8-1-0.8
				c-0.5,0.1-0.8,0.5-0.8,1c0.9,8.1,7.5,14.2,15.5,14.6v3.2H11c-1.2,0-2.2,1-2.2,2.2v4.6c-4.3,0.4-7.7,4.1-7.7,8.6
				C1.1,57.1,5,61,9.7,61c4.7,0,8.6-3.9,8.6-8.6c0-4.5-3.4-8.1-7.7-8.6v-4.6c0-0.2,0.2-0.4,0.4-0.4h19.2v5c-4.3,0.4-7.7,4.1-7.7,8.6
				c0,4.7,3.9,8.6,8.6,8.6c4.7,0,8.6-3.9,8.6-8.6c0-4.5-3.4-8.1-7.7-8.6v-5h19.3c0.2,0,0.4,0.2,0.4,0.4v4.6
				c-4.3,0.4-7.7,4.1-7.7,8.6c0,4.8,3.9,8.6,8.6,8.6c4,0,7.4-2.7,8.4-6.5C61,54,60.7,53.5,60.2,53.4L60.2,53.4z M28.6,26.7
				L28.6,26.7c-0.2,0.2-0.4,0.2-0.5,0.2c-0.1,0-0.3-0.1-0.4-0.2l-1.5-2.1c0.3,0,0.6-0.1,0.9-0.1l2.4,1.5L28.6,26.7
				C28.6,26.7,28.6,26.7,28.6,26.7L28.6,26.7z M34.9,24.3c0.3,0,0.6,0.1,0.9,0.1l-1.5,2.1c-0.1,0.2-0.3,0.2-0.4,0.2
				c-0.1,0-0.3,0-0.5-0.1l-1-0.8L34.9,24.3z M30.4,28.4l-0.3-0.8l0.8-0.7l0.8,0.7c-0.1,0.2-0.2,0.5-0.3,0.8L30.4,28.4z M30.5,30.1
				l1.1,0l0.7,2c-0.8,0.1-1.5,0.1-2.4,0L30.5,30.1z M40.5,26c0.5,0.5,0.8,1.3,0.8,2c-2,1.9-4.5,3.3-7.4,3.8l-0.9-2.7
				c0.1-0.2,0.2-0.7,0.2-0.7c0.3,0.1,0.5,0.1,0.8,0c0.7-0.1,1.3-0.5,1.6-1l1.9-2.8C38.8,25.1,39.8,25.3,40.5,26L40.5,26z M26.6,9
				L26.6,9c0.6,0,1.2-0.4,1.4-1c0.1-0.3,0.4-0.6,0.8-0.6l4.1,0h0h0c1.7,0,3.1,1.4,3.1,3.1l0,2.1c-0.3,0-0.6,0.1-0.9,0.2l0-1.7
				c0-1.1-0.9-2-2-2c0,0,0,0,0,0c-0.9,0-1.1,0.3-2.2,0.3l-0.2,0c0,0,0,0,0,0c-0.8,0-1-0.3-2-0.3l0,0c-1.1,0-2,0.9-2,2l0,1.7
				c-0.3-0.1-0.6-0.2-0.9-0.2l0-2.8C25.7,9.4,26.1,9,26.6,9z M26.6,16.3c0-0.5-0.4-0.9-0.9-0.9c0,0,0,0,0,0l-0.4,0c0,0,0,0,0,0
				c0,0-0.1,0-0.1-0.1l0-1c0.4,0,0.9,0.1,1.1,0.2c0.9,0.6,2.1-0.1,2.1-1.2l0-2.3c0-0.1,0.1-0.3,0.3-0.3l0,0h0c0.5,0,0.9,0.3,2,0.3h0
				l0.2,0c1.3,0,1.7-0.3,2.2-0.3h0c0.1,0,0.3,0.1,0.3,0.3l0,2.3c0,0.7,0.5,1.2,1.1,1.4c0.3,0.1,0.7,0,1-0.2c0.2-0.1,0.6-0.2,1.1-0.2
				l0,1c0,0,0,0.1-0.1,0.1l-0.4,0c-0.5,0-0.9,0.4-0.9,0.9c0,2.5-2.1,4.1-4.4,4.1C28.8,20.4,26.6,18.8,26.6,16.3L26.6,16.3z M31,22.1
				L31,22.1C31,22.1,31,22.1,31,22.1c0.7,0,1.4-0.1,2.1-0.4l0,0.8c0,0.3,0.1,0.5,0.2,0.7L31,24.7l-2.2-1.4c0.1-0.2,0.2-0.5,0.2-0.7
				l0-0.8C29.5,22,30.2,22.1,31,22.1L31,22.1z M22.3,25.5c0.5-0.3,1.4-0.5,2-0.6l1.9,2.8c0.4,0.5,1,0.9,1.6,1c0.3,0,0.5,0,0.8,0
				l0.2,0.7l-0.8,2.6c-2.8-0.6-5.3-2-7.3-3.9C20.8,26.9,21.4,26,22.3,25.5L22.3,25.5z M5.9,58.1c0-0.1-0.2-2.5,1.9-3.7
				c0.5,0.4,1.2,0.6,1.9,0.6s1.4-0.2,1.9-0.6c2.1,1.3,1.9,3.7,1.9,3.7c-1.1,0.7-2.4,1.2-3.8,1.2S7,58.8,5.9,58.1L5.9,58.1z
				 M9.7,53.2c-0.9,0-1.6-0.8-1.6-1.7c0-1,0.7-1.7,1.6-1.7s1.6,0.8,1.6,1.7C11.3,52.4,10.6,53.2,9.7,53.2z M16.6,52.4
				c0,1.6-0.5,3-1.4,4.2c-0.3-1.5-1.2-2.7-2.4-3.6c0.2-0.5,0.4-1,0.4-1.5c0-1.9-1.5-3.5-3.4-3.5s-3.4,1.6-3.4,3.5
				c0,0.6,0.1,1.1,0.4,1.5c-1.2,0.8-2.1,2.1-2.4,3.6c-0.9-1.2-1.4-2.6-1.4-4.2c0-3.8,3.1-6.9,6.9-6.9S16.6,48.6,16.6,52.4L16.6,52.4
				z M27.3,58.1c0-0.1-0.2-2.5,1.9-3.7c0.5,0.4,1.2,0.6,1.9,0.6c0.7,0,1.4-0.2,1.9-0.6c2.1,1.3,1.9,3.7,1.9,3.7
				c-1.1,0.7-2.4,1.2-3.8,1.2C29.7,59.2,28.4,58.8,27.3,58.1L27.3,58.1z M31.1,53.2c-0.9,0-1.6-0.8-1.6-1.7c0-1,0.7-1.7,1.6-1.7
				c0.9,0,1.6,0.8,1.6,1.7C32.7,52.4,32,53.2,31.1,53.2z M38,52.4c0,1.6-0.5,3-1.4,4.2c-0.3-1.5-1.2-2.7-2.4-3.6
				c0.2-0.5,0.4-1,0.4-1.5c0-1.9-1.5-3.5-3.4-3.5c-1.9,0-3.4,1.6-3.4,3.5c0,0.6,0.1,1.1,0.4,1.5c-1.2,0.8-2.1,2.1-2.4,3.6
				c-0.9-1.2-1.4-2.6-1.4-4.2c0-3.8,3.1-6.9,6.9-6.9C34.9,45.5,38,48.6,38,52.4L38,52.4z M52.5,49.7c0.9,0,1.6,0.8,1.6,1.7
				c0,1-0.7,1.7-1.6,1.7c-0.9,0-1.6-0.8-1.6-1.7C50.9,50.5,51.6,49.7,52.5,49.7z M48.7,58.1c0-0.1-0.2-2.5,1.9-3.7
				c0.5,0.4,1.2,0.6,1.9,0.6c0.7,0,1.4-0.2,1.9-0.6c2.1,1.3,1.9,3.7,1.9,3.8c-1.1,0.7-2.4,1.2-3.8,1.2
				C51.1,59.2,49.8,58.8,48.7,58.1L48.7,58.1z"/>
		</g>
	</g>
</g>
</svg>
